<svg width="264" height="278" viewBox="0 0 264 278" fill="none" xmlns="http://www.w3.org/2000/svg">
<path d="M0.215047 10.1854C0.215047 10.1854 60.6702 4.63242 43.4653 72.0938C29.7217 126.083 46.3793 156.99 53.6035 167.201L103.837 34.0943C103.837 34.0943 112.562 21.6055 140.217 19.6543C140.217 19.6543 142.548 -11.0594 162.567 5.3508C182.59 21.7462 166.098 25.7265 166.098 25.7265C166.098 25.7265 211.453 32.4539 199.961 61.1604L197.06 90.3909C208.764 83.8181 245.889 66.8248 259.537 107.028C275.492 154.035 242.717 258.74 181.021 251.642L178.695 275.01C178.695 275.01 92.8381 290.617 25.5714 241.459L29.4966 231.082C5.47088 221.404 4.71418 147.089 19.4417 86.8488C35.0156 23.0276 0.211819 10.2001 0.211819 10.2001L0.215047 10.1854ZM184.284 218.787C199.826 215.833 229.619 203.7 235.121 154.496C241.495 97.4416 205.857 107.089 194.968 111.279L184.288 218.772L184.284 218.787Z" fill="#DF45A7"/>
</svg>
