<svg width="286" height="286" viewBox="0 0 286 286" fill="none" xmlns="http://www.w3.org/2000/svg">
<path d="M32.3128 141.743L118.011 190.956C118.011 190.956 106.177 212.034 109.25 231.367C111.176 243.413 119.724 250.87 122.201 253.123C134.773 264.505 150.179 264.483 155.143 264.474C161.624 264.459 166.949 263.273 170.549 262.2L178.012 285.209L280.253 193.063L265.288 186.457C275.22 184.528 287.918 179.497 285.227 162.458C282.536 145.419 259.337 155.915 259.337 155.915C259.337 155.915 258.049 136.536 238.571 136.229C219.083 135.932 220.389 166.681 220.389 166.681L210.422 162.288L133.968 0.865328C112.472 14.9827 88.4242 32.7788 63.6146 54.9762C37.9191 77.9923 16.9985 100.744 0.232934 121.192C5.96008 125.205 11.6883 129.196 17.4155 133.208C13.6817 138.502 14.6006 144.859 17.6919 147.208C21.1532 149.832 28.7504 148.465 32.3229 141.754L32.3128 141.743ZM157.586 213.743L167.113 243.457C167.113 243.457 146.69 250.477 135.764 236.8C124.838 223.124 133.99 200.241 133.99 200.241L157.596 213.754L157.586 213.743Z" fill="#0400DB"/>
</svg>
