<svg width="291" height="309" viewBox="0 0 291 309" fill="none" xmlns="http://www.w3.org/2000/svg">
<path d="M50.9557 81.8594L66.891 93.8823C66.891 93.8823 34.6842 131.437 31.319 155.624C28.8622 173.224 34.0224 183.482 36.9984 187.748L114.03 131.185L120.096 135.762L130.575 121.873L171.99 0.343705C171.99 0.343705 236.564 17.6926 290.866 90.0343L183.039 160.003L172.006 174.626L176.183 177.777L141.902 263.44L150.483 308.841C149.918 308.414 72.3982 275.481 72.3982 275.481L62.0716 301.384L33.6313 279.926L54.914 263.158L9.27362 208.098L17.0426 202.382C8.74307 193.306 -11.1424 166.593 8.34964 135.951C32.4609 98.0866 50.9528 81.8383 50.9528 81.8383L50.9557 81.8594Z" fill="#0400DB"/>
</svg>
