<svg width="344" height="446" viewBox="0 0 344 446" fill="none" xmlns="http://www.w3.org/2000/svg">
<path d="M310.906 34.5143L273.003 38.8434L293.995 0.0496492C186.584 49.4445 246.677 173.672 278.906 234.122C311.143 294.59 265.603 298.964 265.603 298.964C265.603 298.964 168.823 56.5775 167.164 52.4216C165.505 48.2658 63.7961 95.8009 61.9013 94.4507L68.0607 110.138C53.6185 114.925 -29.9214 146.424 12.395 223.517C53.3245 298.077 114.444 269.981 127.935 262.55L131.817 272.431C115.09 278.129 35.5612 309.904 77.0728 385.504C117.187 458.596 176.711 433.035 191.756 425.005L199.65 445.089L309.771 401.121L289.483 354.279C309.567 347.22 323.078 336.339 331.776 323.751C353.718 291.983 340.048 246.358 325.926 222.169C319.397 210.988 313.637 206.071 303.131 186.341C299.211 178.979 293.828 164.399 286.184 147.448C246.92 60.396 310.899 34.4964 310.899 34.4964L310.906 34.5143ZM30.534 214.773C7.4474 162.332 64.731 136.957 76.781 132.292L119.287 240.472C106.714 246.076 53.1753 266.202 30.534 214.773ZM95.2118 376.76C72.6424 325.51 126.832 300.119 140.559 294.638L183.079 402.855C169.061 408.911 117.365 427.07 95.2118 376.76Z" fill="#DF45A7"/>
</svg>
