<?xml version="1.0" encoding="UTF-8"?>
<svg id="Layer_2" data-name="Layer 2" xmlns="http://www.w3.org/2000/svg" viewBox="0 0 949.62 1423.96">
  <defs>
    <style>
      .cls-1 {
        fill: #fff;
      }

      .cls-2 {
        fill: #6dc9f3;
      }

      .cls-3 {
        font-size: 42.16px;
      }

      .cls-3, .cls-4 {
        font-family: Helvetica-LightOblique, Helvetica;
        font-style: oblique;
        font-weight: 300;
      }

      .cls-4 {
        font-size: 13.4px;
      }
    </style>
  </defs>
  <g id="_Слой_1" data-name="Слой 1">
    <g>
      <rect class="cls-2" y="0" width="949.62" height="1423.96"/>
      <g>
        <path d="M65.55,189.23c-5.13-2.66-9.32-6.28-12.17-11.03-3.04-4.75-4.94-10.27-5.52-16.54-.76-6.28-.38-12.93,1.14-19.97,1.52-7.04,3.99-13.69,7.42-19.97,3.23-6.28,7.42-11.79,12.36-16.54,4.94-4.75,10.65-8.37,16.93-11.22,6.28-2.85,13.31-4.18,20.73-4.18,10.46,0,18.83,2.85,25.1,8.37,6.09,5.52,8.56,14.07,7.61,25.29h-11.98c-.19-7.42-1.9-13.12-5.52-17.31-3.61-4.18-9.32-6.28-17.31-6.28-5.71,0-11.03,1.14-15.78,3.61-4.75,2.47-9.13,5.52-12.74,9.51-3.61,3.99-6.85,8.37-9.32,13.31-2.47,5.13-4.37,10.27-5.52,15.4-.95,5.13-1.33,10.27-.95,15.21,.38,5.13,1.52,9.51,3.61,13.5,2.09,3.99,4.94,7.04,8.75,9.51,3.8,2.47,8.56,3.61,14.26,3.61,3.61,0,7.23-.76,10.84-2.09,3.61-1.33,6.85-3.42,10.08-5.9,3.04-2.47,5.71-5.33,8.18-8.75,2.28-3.42,3.99-7.23,5.32-11.22h11.98c-4.18,11.98-10.46,21.11-19.02,27.76-8.56,6.66-18.26,10.08-29.48,10.08-7.42,0-13.88-1.33-19.02-4.18Z"/>
        <path d="M229.48,92.62h15.97l-49.83,38.42,31.57,59.71h-15.02l-27-51.54-23.96,18.45-6.85,33.09h-11.98l20.73-98.13h11.98l-10.65,50.4,65.04-50.4Z"/>
        <path d="M323.8,92.62h14.83l-20.73,98.13h-11.98l17.69-84.06-71.89,84.06h-14.83l20.73-98.13h11.98l-17.88,84.06,72.08-84.06Z"/>
        <path d="M360.88,149.48c4.75-11.98,8.94-26.63,12.55-43.93l2.66-12.93h65.99l-18.64,88.05h14.64l-8.75,41.27h-11.98l6.66-31.19h-81.77l-6.66,31.19h-11.79l8.56-41.27h11.6c6.47-8.75,12.17-19.21,16.93-31.19Zm23.2-39.94c-3.42,16.55-7.61,30.62-12.55,42.41-4.94,11.98-10.08,21.49-15.21,28.72h55.15l16.55-77.97h-42.41l-1.52,6.85Z"/>
        <path d="M536.03,92.62h15.97l-49.83,38.42,31.57,59.71h-15.02l-27-51.54-23.96,18.45-6.85,33.09h-11.98l20.73-98.13h11.98l-10.65,50.4,65.04-50.4Z"/>
        <path d="M630.36,92.62h14.83l-20.73,98.13h-11.98l17.69-84.06-71.89,84.06h-14.83l20.73-98.13h11.98l-17.88,84.06,72.08-84.06Z"/>
      </g>
      <g>
        <path d="M297.4,333.51v-44.91h12.92v105.82h-12.92v-50.04h-60.09v50.04h-12.92v-105.82h12.92v44.91h60.09Z"/>
        <path d="M350.72,395.65c-4.31-1.23-8.2-3.08-11.28-5.74-3.28-2.46-5.74-5.74-7.59-9.64-1.85-3.9-2.87-8.41-2.87-13.74,0-7.38,1.64-13.13,4.92-17.43,3.28-4.1,7.59-7.18,13.13-9.43,5.33-2.26,11.48-3.69,18.25-4.72l20.51-2.46c2.67-.21,4.92-.62,7.18-1.03,2.05-.41,3.69-1.23,5.13-2.26,1.44-1.03,2.46-2.26,3.28-4.1,.62-1.85,1.03-4.1,1.03-6.97,0-4.31-.62-8-2.05-10.87-1.44-2.67-3.49-4.92-5.95-6.56-2.67-1.64-5.54-2.87-8.82-3.49-3.49-.62-6.97-.82-10.87-.82-8.2,0-14.97,1.85-20.1,5.74-5.13,3.9-8,10.25-8.2,18.87h-12.92c.82-12.51,5.13-21.53,12.92-27.07,7.59-5.54,17.64-8.41,29.94-8.41,4.72,0,9.23,.41,13.95,1.23,4.72,1.03,8.82,2.67,12.51,5.13,3.69,2.46,6.77,5.95,9.02,10.25,2.26,4.51,3.49,10.25,3.49,17.43v56.19c0,5.13,2.46,7.79,7.59,7.79,1.64,0,3.08-.21,4.1-.82v10.87l-3.9,.62c-1.23,.21-2.67,.21-4.51,.21-3.28,0-5.95-.41-7.79-1.44-2.05-.82-3.69-2.05-4.72-3.69-1.03-1.64-1.85-3.69-2.05-5.95-.41-2.26-.62-4.72-.62-7.38h-.41c-2.26,3.49-4.72,6.36-6.97,9.02-2.46,2.67-5.13,4.92-8,6.77-3.08,1.85-6.36,3.08-10.25,4.1-3.9,1.03-8.2,1.44-13.33,1.44s-9.43-.62-13.74-1.64Zm28.92-11.28c4.51-1.44,8.41-3.69,11.89-6.56,3.28-2.87,5.95-6.36,8-10.46,1.85-4.1,2.87-8.82,2.87-13.95v-16.82h-.41c-.82,1.44-2.46,2.67-4.72,3.28-2.26,.62-4.31,1.23-6.15,1.44-5.54,1.03-11.07,1.85-16.82,2.46-5.95,.82-11.28,2.05-16,3.49-4.72,1.44-8.61,3.69-11.69,6.56-3.08,2.87-4.72,6.77-4.72,11.9,0,3.28,.62,6.15,2.05,8.61,1.23,2.67,2.87,4.72,5.13,6.56,2.26,1.85,4.72,3.28,7.59,4.31,2.67,1.03,5.74,1.44,8.82,1.44,4.92,0,9.64-.82,14.15-2.26Z"/>
        <path d="M571.39,294.96c5.95,4.31,8.82,10.46,8.82,18.66,0,6.36-1.64,11.48-4.72,15.79-3.28,4.31-7.79,7.18-13.54,8.82v.41c6.97,1.23,12.51,3.9,16.41,8.2,3.9,4.31,5.95,10.25,5.95,18.05,0,9.64-3.28,16.82-9.64,21.94-6.36,5.13-15.79,7.59-28.3,7.59h-48.4v-105.82h48.4c10.87,0,19.07,2.05,25.02,6.36Zm-9.64,34.66c3.69-3.08,5.54-7.38,5.54-12.71,0-11.69-7.38-17.43-22.35-17.43h-34.04v34.86h34.04c7.38,0,12.92-1.64,16.82-4.72Zm3.28,48.81c4.31-3.28,6.36-8.2,6.36-14.97,0-6.15-2.05-10.87-6.36-14.15-4.31-3.28-11.07-4.92-20.1-4.92h-34.04v39.17h34.04c9.02,0,15.79-1.64,20.1-5.13Z"/>
        <path d="M624.92,392.78c-5.95-2.87-10.87-6.97-14.77-12.1-3.9-5.13-6.56-10.87-8.41-17.64-1.85-6.77-2.87-13.95-2.87-21.53,0-6.97,1.03-13.74,2.87-20.51,1.85-6.77,4.51-12.71,8.41-18.05,3.9-5.13,8.82-9.43,14.77-12.72,5.95-3.08,13.33-4.72,21.74-4.72s15.79,1.64,21.74,5.13c5.95,3.49,10.87,7.79,14.77,13.33,3.69,5.54,6.36,11.89,8,19.07,1.64,7.18,2.26,14.56,2.05,21.94h-81.42c0,4.72,.62,9.64,2.05,14.56,1.23,4.92,3.28,9.43,6.15,13.33,2.87,3.9,6.56,7.18,10.87,9.84,4.31,2.67,9.64,3.9,15.79,3.9,9.43,0,16.82-2.46,22.15-7.38,5.33-4.92,9.02-11.48,11.07-19.69h12.92c-2.67,12.1-7.79,21.33-14.97,27.89-7.38,6.56-17.84,9.84-31.17,9.84-8.41,0-15.79-1.44-21.74-4.51Zm52.91-72.8c-1.64-4.51-3.9-8.61-6.77-12.1-2.87-3.49-6.36-6.15-10.46-8.41-4.1-2.05-8.82-3.08-13.95-3.08s-10.05,1.03-14.15,3.08c-4.1,2.26-7.59,4.92-10.46,8.41-2.87,3.49-5.13,7.59-6.77,12.1-1.85,4.72-2.87,9.43-3.49,14.15h68.5c-.21-4.92-1.03-9.64-2.46-14.15Z"/>
        <path d="M734.02,392.78c-6.36-2.87-11.48-6.77-15.79-11.89-4.31-5.13-7.38-11.07-9.64-17.84-2.26-6.77-3.28-13.95-3.28-21.53s1.03-14.77,3.28-21.53c2.26-6.77,5.33-12.72,9.64-17.84,4.31-5.13,9.43-9.02,15.79-12.1,6.15-3.08,13.33-4.51,21.33-4.51,11.28,0,20.92,3.08,28.92,9.02,7.79,5.95,12.51,15.18,13.95,27.28h-12.92c-1.85-8-5.13-14.15-9.84-18.66-4.72-4.51-11.48-6.77-20.1-6.77-6.15,0-11.48,1.23-16.2,3.9-4.72,2.67-8.41,5.95-11.48,10.25-3.08,4.31-5.54,9.02-6.97,14.36-1.64,5.54-2.46,11.07-2.46,16.61s.82,11.07,2.46,16.41c1.44,5.54,3.9,10.25,6.97,14.56,3.08,4.31,6.77,7.59,11.48,10.25,4.72,2.67,10.05,3.9,16.2,3.9,3.9,0,7.79-.82,11.28-2.26,3.49-1.44,6.77-3.69,9.43-6.36,2.67-2.67,4.92-5.74,6.77-9.43,1.85-3.69,2.87-7.79,3.28-12.1h12.92c-1.85,12.92-6.56,22.76-14.15,29.94-7.59,7.18-17.43,10.87-29.53,10.87-8,0-15.18-1.44-21.33-4.51Z"/>
        <path d="M868.76,331.05c10.25,0,18.46,2.67,24.4,8.2,5.95,5.54,9.02,13.13,9.02,23.17s-3.08,17.84-9.02,23.38c-5.95,5.74-14.15,8.61-24.4,8.61h-50.86v-105.82h12.92v42.45h37.94Zm14.36,47.17c4.1-3.49,6.15-8.82,6.15-15.79s-2.05-12.1-6.15-15.59c-4.31-3.28-10.05-4.92-17.43-4.92h-34.86v41.63h34.86c7.38,0,13.13-1.85,17.43-5.33Z"/>
      </g>
      <g>
        <path d="M55.17,506.55c2.06-4.13,4.88-7.5,8.44-9.94,3.56-2.63,7.69-4.5,12.57-5.63,4.88-1.13,10.13-1.69,15.94-1.69,4.69,0,9.38,.38,13.88,1.5,4.5,.94,8.44,2.44,11.82,4.69,3.56,2.06,6.38,5.06,8.44,8.44,2.25,3.38,3.19,7.69,3.19,12.57v57.03c0,1.5,.38,3,1.31,4.13,.75,1.13,2.25,1.69,4.13,1.69,.75,0,1.69-.19,2.63-.38,.94,0,1.88-.19,2.81-.38v11.63c-1.31,.38-2.81,.75-4.13,.94-1.31,.38-3,.56-4.88,.56-3,0-5.44-.38-7.5-.75-2.25-.56-3.94-1.31-5.44-2.44-1.31-1.13-2.44-2.63-3.38-4.5-.75-1.69-1.13-3.94-1.5-6.57-2.06,2.25-4.31,4.31-6.57,6.19-2.25,2.06-4.88,3.75-7.88,5.06-2.81,1.5-6,2.63-9.57,3.56-3.56,.75-7.5,1.13-12.01,1.13-3.75,0-7.32-.56-10.88-1.88-3.56-1.13-6.94-3-9.75-5.25-2.81-2.44-5.06-5.44-6.75-9-1.88-3.38-2.63-7.5-2.63-12.19,0-5.06,.75-9.38,2.63-13.13,1.69-3.75,3.94-6.75,6.57-9.19,2.81-2.63,6-4.31,9.57-5.82,3.56-1.31,7.13-2.06,10.69-2.63l27.57-3.38c2.63-.19,4.69-1.31,6.19-3,1.5-1.88,2.25-4.5,2.25-8.44,0-6-1.88-10.13-5.82-12.76-3.94-2.63-9.38-3.94-16.69-3.94s-12.94,1.69-16.69,4.69c-3.56,3.19-5.82,7.88-6.19,14.26h-15.76c.19-6,1.31-11.07,3.38-15.19Zm52.52,36.39c-2.06,.56-4.31,1.13-6.57,1.5-2.44,.56-5.06,.94-7.69,1.13l-8.07,1.13c-3,.56-5.82,.94-8.44,1.88-2.44,.75-4.69,1.88-6.57,3-2.06,1.31-3.38,3-4.5,4.69-.94,1.88-1.5,3.94-1.5,6.38,0,2.81,.38,5.25,1.31,7.5,.94,2.06,2.06,3.94,3.75,5.25,1.5,1.5,3.38,2.63,5.44,3.38,2.25,.75,4.69,1.13,7.32,1.13,1.69,0,3.56-.19,5.63-.75,2.25-.38,4.31-.75,6.57-1.69,2.44-.75,4.5-1.88,6.75-3,2.06-1.31,4.13-2.81,5.82-4.5,1.69-1.88,3-3.75,4.13-6.19,.94-2.25,1.5-4.69,1.5-7.5v-15.76c-1.31,.94-3,1.69-4.88,2.44Z"/>
        <path d="M232.06,457.78c-.38,1.5-.75,2.81-1.31,4.31-.75,1.5-1.5,3-2.44,4.31-1.13,1.69-2.63,3-4.31,4.31-1.13,.56-1.88,1.31-2.63,1.69-.94,.56-1.88,.94-3.19,1.31-1.13,.38-2.63,.56-4.5,.94-2.06,.19-4.5,.38-7.69,.38l-6.94,.19c-4.69,.19-9,1.13-12.76,2.81-3.94,1.88-7.32,4.31-10.13,7.5-3,3.19-5.25,7.13-7.32,11.63-1.88,4.5-3.19,9.57-4.13,15.19,1.31-2.44,2.81-4.88,4.69-7.32,1.88-2.25,4.31-4.31,7.13-6.19,2.81-1.88,6.19-3.38,9.94-4.5,3.75-1.13,8.07-1.69,13.13-1.69,5.63,0,11.07,.94,16.13,3,5.06,2.06,9.57,5.06,13.51,9,3.75,4.13,6.75,9.19,9,15.19,2.25,5.82,3.38,12.76,3.38,20.82,0,2.44-.19,5.44-.56,9-.38,3.56-1.13,7.32-2.25,11.25-1.13,3.94-2.63,7.88-4.69,11.63-2.06,3.94-4.69,7.5-8.07,10.5-3.38,3-7.5,5.44-12.38,7.5-4.88,1.88-10.69,2.81-17.45,2.81-2.81,0-5.82-.19-9-.56-3.19-.56-6.19-1.5-9.38-2.63-3.19-1.13-6.19-3-9.19-5.06-3-2.25-5.63-5.06-8.07-8.44-1.13-1.88-2.44-3.75-3.56-6-1.31-2.25-2.25-4.88-3.38-8.07-.94-3.19-1.69-6.94-2.25-11.26-.56-4.31-.94-9.38-.94-15.38,0-3.94,.19-8.25,.56-13.32,.38-4.88,.94-9.94,1.88-15.01,.94-5.25,2.25-10.13,3.75-15.01,1.5-4.69,3.38-9,5.82-12.57,2.63-3.94,5.25-6.94,8.07-9.57,2.81-2.44,5.81-4.31,9-5.63,3.19-1.5,6.57-2.44,10.32-3.19,3.56-.56,7.5-.94,11.82-1.13l6-.19c1.88,0,3.56-.19,5.06-.38,1.31,0,2.44-.38,3.38-.75,.94-.38,1.69-.94,2.06-1.69,.56-.56,1.13-1.69,1.5-3h12.76c0,.94-.19,2.06-.38,3.19Zm-64.34,91.92c.19,2.44,.56,5.06,1.31,7.69,.56,2.81,1.69,5.63,2.81,8.25,1.31,2.63,3.19,5.06,5.25,7.13,2.06,2.06,4.69,3.75,7.69,5.06,3.19,1.31,6.94,2.06,11.26,2.06,4.88,0,8.82-.94,12.19-2.44,3.19-1.5,6-3.56,8.07-6,2.06-2.44,3.75-5.06,5.06-8.25,.94-3,1.88-5.82,2.44-8.63,.38-3,.75-5.44,.94-7.88v-5.25c0-4.5-.38-8.82-1.5-13.13-.94-4.31-2.63-8.07-4.88-11.44-2.25-3.19-5.06-5.82-8.63-7.88-3.56-2.06-7.88-3-13.13-3s-9.57,.94-13.13,2.81c-3.75,2.06-6.75,4.69-9,8.07-2.44,3.38-4.13,7.32-5.44,11.82-1.13,4.5-1.69,9.38-1.69,14.44,0,1.88,0,4.13,.38,6.57Z"/>
        <path d="M336.36,563.58c-.75,3-1.88,5.63-3.19,8.44-1.31,2.81-3,5.44-5.06,8.07-2.06,2.44-4.69,4.88-7.69,6.75-3,2.06-6.57,3.56-10.69,4.88-4.13,1.13-8.82,1.69-14.07,1.69-2.81,0-5.81-.38-9-.94-3.38-.75-6.38-2.06-9.38-3.56-3-1.69-5.82-3.75-8.63-6.38-2.63-2.63-5.06-5.82-7.13-9.75-2.06-3.75-3.75-8.25-4.88-13.51-1.13-4.88-1.88-10.88-1.88-17.44,0-8.07,1.31-15.38,3.56-21.95,2.25-6.57,5.44-12.01,9.38-16.51,3.75-4.5,8.25-7.88,13.51-10.5,5.06-2.44,10.5-3.56,16.13-3.56,5.25,0,9.75,.56,13.69,1.69,3.94,1.13,7.32,2.44,10.32,4.31,2.81,1.88,5.25,3.94,7.32,6.38,2.06,2.44,3.75,4.88,5.06,7.5,1.13,2.81,2.06,5.44,2.81,8.25,.56,2.63,.94,5.44,1.13,7.88h-15.76c-.75-6.75-3.19-12.01-6.94-15.76-3.75-3.75-9-5.63-15.76-5.63-4.69,0-8.63,.94-12.01,2.81-3.56,1.88-6.38,4.5-8.63,7.88-2.44,3.38-4.13,7.5-5.25,12.38-1.13,4.88-1.69,9.94-1.69,15.76,0,6.57,.56,12.01,1.88,16.69,1.13,4.69,2.81,8.44,5.25,11.44,2.25,3.19,4.88,5.44,8.25,6.75,3.19,1.5,6.94,2.25,11.07,2.25,3,0,5.63-.56,8.44-1.69,2.63-.94,4.88-2.63,6.94-4.69,2.06-2.06,3.94-4.5,5.25-7.5,1.5-3,2.63-6.38,3.19-10.13h15.76c-.19,2.44-.75,4.88-1.31,7.69Z"/>
        <path d="M389.07,572.2l26.07-79.91h18.57l-37.52,102.05c-1.88,5.06-3.56,9.57-5.25,13.32-1.5,3.75-3,7.13-4.69,9.75-1.5,2.63-3,4.69-4.5,6.38-1.5,1.69-3.38,3-5.06,3.94-2.06,.94-3.94,1.69-6.38,1.88-2.25,.38-4.88,.56-7.88,.56-2.44,0-4.31-.19-5.63-.38-1.5-.19-2.81-.38-3.75-.75v-15.19c1.13,.38,2.63,.75,4.31,1.13,1.69,.38,3.75,.56,5.63,.56,3,0,5.63-.75,7.5-2.25,2.06-1.5,3.38-3.56,4.5-6.38l5.44-13.88-36.39-100.73h18.57l26.07,79.91h.38Z"/>
        <path d="M464.48,505.8c1.13-2.25,2.44-4.5,4.13-6.38,1.69-2.06,3.75-3.75,6.19-5.44,2.25-1.31,4.88-2.63,8.07-3.38,3-.94,6.57-1.31,10.5-1.31,5.25,0,10.32,.94,15.19,3,4.88,2.06,9,5.06,12.76,9,3.75,4.13,6.75,9.19,8.82,15.19,2.25,6.19,3.38,13.13,3.38,21.2,0,10.13-.94,18.57-3,25.7-2.06,7.13-4.88,12.76-8.82,17.26-3.75,4.5-8.25,7.69-13.51,9.75-5.44,2.06-11.25,3-17.82,3-3.19,0-6.19-.38-9-1.31-2.81-.75-5.44-1.88-7.5-3.38-2.44-1.31-4.31-2.81-5.82-4.5-1.5-1.69-2.81-3.38-3.56-4.88h-.38v49.71h-16.88v-136.75h16.88v13.51h.38Zm.75,50.65c1.13,4.5,2.63,8.44,4.88,11.82,2.06,3.19,4.88,5.82,8.25,7.69,3.19,1.88,6.94,2.81,11.44,2.81s8.63-.94,12.19-2.81c3.38-1.88,6-4.5,8.25-7.69,2.25-3.38,3.75-7.32,4.88-11.82,.94-4.5,1.5-9.19,1.5-14.63s-.56-10.5-1.5-15.19c-1.13-4.69-2.63-8.63-4.88-12.01-2.25-3.38-4.88-6-8.25-7.88-3.56-1.88-7.5-2.81-12.19-2.81s-8.25,.94-11.44,2.81c-3.38,1.88-6.19,4.5-8.25,7.88-2.25,3.38-3.75,7.32-4.88,12.01-.94,4.69-1.5,9.57-1.5,15.19s.56,10.13,1.5,14.63Z"/>
        <path d="M542.7,614.41v-38.64h12.94c2.63-6.57,4.69-13.32,6.38-20.26,1.5-6.94,2.81-13.69,3.56-20.82,.94-6.94,1.5-14.07,1.69-21.01,.19-7.13,.38-14.26,.38-21.38h68.47v83.47h13.88v38.64h-15.76v-24.01h-75.78v24.01h-15.76Zm39.77-90.42c-.38,6-1.13,11.82-1.88,17.63-.75,6-1.69,11.82-3,17.44-1.31,5.82-2.81,11.44-4.88,16.7h46.52v-68.84h-35.45c-.56,5.63-.75,11.26-1.31,17.07Z"/>
      </g>
      <g>
        <path d="M522.01,701.76c3.78-.52,7.22-1.72,10.48-3.26,3.09-1.55,5.84-3.95,8.42-7.04,2.58-2.92,4.81-7.04,6.87-12.2h8.76l-25.77,121.12h-11l19.07-90.03h-31.27l1.55-7.22c4.64-.34,8.93-.86,12.89-1.37Z"/>
        <path d="M651.89,681.83c3.95,1.89,7.04,4.3,9.45,7.39,2.41,3.09,4.12,6.7,5.15,10.82,.86,4.12,1.37,8.42,1.55,13.06,0,4.64-.34,9.45-1.03,14.43s-1.55,9.79-2.58,14.43c-1.72,8.07-3.95,15.63-6.53,23.02-2.75,7.39-6.19,13.74-10.31,19.41-4.3,5.67-9.28,10.14-15.29,13.4-6.01,3.26-13.23,4.98-21.65,4.98s-14.78-1.72-19.41-4.98c-4.64-3.26-7.9-7.9-9.79-13.57-1.89-5.67-2.58-12.2-2.06-19.76,.52-7.39,1.55-15.29,3.44-23.71,1.55-7.73,3.78-15.12,6.36-22.51,2.58-7.39,5.84-13.92,10.14-19.76,4.12-5.67,9.28-10.31,15.46-13.92,6.01-3.61,13.4-5.33,22.16-5.33,6.01,0,11,.86,14.95,2.58Zm4.81,39.69c.52-6.18,.34-11.68-.86-16.66-1.2-4.98-3.44-8.93-6.7-11.85s-8.25-4.47-14.6-4.47c-6.01,0-11.34,1.55-15.81,4.47-4.47,3.09-8.25,7.22-11.51,12.2-3.26,4.98-6.01,10.82-8.25,17.18-2.23,6.36-4.12,12.89-5.5,19.59-1.55,7.73-2.58,14.77-2.92,21.13-.52,6.36,0,11.85,1.37,16.32,1.37,4.47,3.78,7.9,7.04,10.31,3.26,2.58,7.9,3.78,13.74,3.78,6.53,0,12.03-1.55,16.66-4.81,4.64-3.26,8.42-7.39,11.68-12.37,3.26-4.98,5.84-10.65,7.9-17.01,1.89-6.36,3.61-12.54,4.81-18.55,1.37-6.53,2.41-12.89,2.92-19.24Z"/>
        <path d="M747.42,681.83c3.95,1.89,7.04,4.3,9.45,7.39,2.41,3.09,4.12,6.7,5.15,10.82,.86,4.12,1.37,8.42,1.55,13.06,0,4.64-.34,9.45-1.03,14.43-.69,4.98-1.55,9.79-2.58,14.43-1.72,8.07-3.95,15.63-6.53,23.02-2.75,7.39-6.19,13.74-10.31,19.41-4.3,5.67-9.28,10.14-15.29,13.4-6.01,3.26-13.23,4.98-21.65,4.98s-14.78-1.72-19.41-4.98c-4.64-3.26-7.9-7.9-9.79-13.57-1.89-5.67-2.58-12.2-2.06-19.76,.52-7.39,1.55-15.29,3.44-23.71,1.55-7.73,3.78-15.12,6.36-22.51,2.58-7.39,5.84-13.92,10.14-19.76,4.12-5.67,9.28-10.31,15.46-13.92,6.01-3.61,13.4-5.33,22.16-5.33,6.01,0,11,.86,14.95,2.58Zm4.81,39.69c.52-6.18,.34-11.68-.86-16.66-1.2-4.98-3.44-8.93-6.7-11.85-3.26-2.92-8.25-4.47-14.6-4.47-6.01,0-11.34,1.55-15.81,4.47-4.47,3.09-8.25,7.22-11.51,12.2-3.26,4.98-6.01,10.82-8.25,17.18-2.23,6.36-4.12,12.89-5.5,19.59-1.55,7.73-2.58,14.77-2.92,21.13-.52,6.36,0,11.85,1.37,16.32,1.37,4.47,3.78,7.9,7.04,10.31,3.26,2.58,7.9,3.78,13.74,3.78,6.53,0,12.03-1.55,16.66-4.81,4.64-3.26,8.42-7.39,11.68-12.37,3.26-4.98,5.84-10.65,7.9-17.01,1.89-6.36,3.61-12.54,4.81-18.55,1.37-6.53,2.41-12.89,2.92-19.24Z"/>
        <path d="M837.78,719.97c-2.23,3.44-4.98,6.36-8.07,8.93-3.26,2.58-6.7,4.64-10.48,6.18-3.78,1.55-7.56,2.23-11.51,2.23s-7.39-.69-10.48-2.23c-3.26-1.55-5.84-3.61-7.73-6.18-2.06-2.58-3.44-5.5-4.12-8.93-.86-3.44-.86-7.04,0-11,.86-3.95,2.41-7.56,4.64-11,2.23-3.44,4.81-6.53,7.9-9.11,3.09-2.58,6.53-4.64,10.31-6.18,3.78-1.55,7.56-2.23,11.51-2.23s7.39,.69,10.65,2.23c3.09,1.55,5.67,3.44,7.73,6.01,2.06,2.58,3.44,5.67,4.3,9.11,.69,3.61,.69,7.22-.17,11.17-.86,3.95-2.23,7.56-4.47,11Zm57.21-40.72l-94.49,123.53h-8.93l94.49-123.53h8.93Zm-77.66,46.73c2.41-.86,4.64-2.23,6.7-3.95,2.06-1.72,3.78-3.78,5.33-6.01,1.55-2.23,2.58-4.47,3.09-7.04,.52-2.58,.52-4.98,0-7.22-.52-2.23-1.55-4.12-2.75-5.84-1.37-1.72-3.09-3.09-5.15-4.12-2.06-1.03-4.3-1.55-6.87-1.55s-4.98,.52-7.39,1.37c-2.58,1.03-4.81,2.4-6.87,4.12-2.06,1.72-3.78,3.78-5.15,6.01-1.55,2.23-2.58,4.64-3.09,7.22-.52,2.58-.52,4.81,0,7.04,.52,2.23,1.55,4.3,2.92,6.01,1.2,1.72,2.92,3.09,4.98,3.95,1.89,1.03,4.12,1.55,6.7,1.55s4.98-.52,7.56-1.55Zm72.67,19.76c3.09,1.55,5.67,3.44,7.56,6.01,1.89,2.58,3.26,5.67,4.12,9.1,.69,3.44,.69,7.04-.17,11-.86,3.95-2.23,7.56-4.47,11-2.23,3.61-4.81,6.53-7.73,9.11-3.09,2.58-6.53,4.64-10.31,6.18-3.78,1.55-7.56,2.23-11.51,2.23s-7.39-.69-10.48-2.23c-3.26-1.55-5.84-3.61-7.9-6.18-2.06-2.58-3.44-5.5-4.12-9.11-.86-3.44-.86-7.04,0-11,.86-3.95,2.41-7.56,4.64-11,2.23-3.44,4.81-6.53,8.07-9.1,3.09-2.58,6.53-4.47,10.31-6.01,3.78-1.55,7.56-2.23,11.51-2.23s7.39,.69,10.48,2.23Zm-20.27,9.11c-2.41,1.03-4.64,2.41-6.7,4.12-2.06,1.72-3.78,3.78-5.15,6.01-1.55,2.23-2.58,4.64-3.09,7.22-.52,2.41-.52,4.64,0,6.87,.52,2.23,1.55,4.3,2.92,6.01,1.2,1.72,2.92,3.09,4.98,3.95,2.06,1.03,4.3,1.55,6.7,1.55,2.58,0,4.98-.52,7.39-1.55,2.41-1.03,4.64-2.41,6.7-4.12,2.06-1.72,3.78-3.78,5.33-6.01,1.37-2.23,2.41-4.47,2.92-7.04,.52-2.58,.69-4.98,.17-7.22-.52-2.23-1.55-4.12-2.75-5.84-1.37-1.72-3.09-3.09-4.98-4.12-2.06-.86-4.3-1.37-6.87-1.37s-5.15,.52-7.56,1.55Z"/>
      </g>
      <g>
        <path d="M94.74,1129.89c2.37-.55,4.56-1.28,6.57-2.55,2.01-1.1,3.47-2.55,4.93-4.38,1.28-1.82,1.82-4.2,1.82-6.75,0-1.82-.36-3.65-1.09-5.47-.91-1.64-2.19-3.28-3.65-4.56-1.64-1.46-3.47-2.37-6.02-3.28-2.37-.73-5.11-1.09-8.21-1.09-1.64,0-3.65,.36-5.84,.73-2.37,.36-4.56,1.28-6.57,2.56-2.37,1.28-4.2,3.1-5.84,5.47-1.64,2.37-2.92,5.47-3.28,9.12h-15.33c.36-4.2,1.28-8.03,2.55-11.31,1.28-3.1,2.92-6.02,4.93-8.39,2.01-2.37,4.2-4.38,6.57-5.84,2.55-1.64,5.11-2.92,7.66-3.83,2.74-1.09,5.29-1.64,8.03-2.19,2.74-.36,5.29-.55,7.66-.55,4.2,0,8.39,.55,12.59,1.64,4.2,1.09,8.03,2.74,11.31,4.93,3.28,2.19,5.84,5.11,7.85,8.39,2.01,3.47,3.1,7.3,3.1,11.86,0,3.1-.55,5.47-1.28,7.66-.73,2.37-1.82,4.2-3.28,6.02-1.28,1.64-2.74,2.92-4.56,4.2-1.64,1.1-3.28,2.01-4.74,2.92v.36c1.64,.36,3.47,.91,5.47,1.82,2.01,.91,3.83,2.19,5.66,3.83,1.64,1.82,3.1,4.01,4.38,6.57,1.09,2.74,1.64,5.84,1.64,9.67,0,5.47-1.28,10.04-3.47,13.87-2.19,4.01-5.29,7.12-8.94,9.85-3.65,2.55-7.85,4.56-12.41,5.84-4.74,1.28-9.31,1.82-14.05,1.82-6.02,0-11.5-.73-16.42-2.37-4.93-1.46-9.12-3.65-12.77-6.57-3.47-2.74-6.39-6.2-8.39-10.22-2.19-4.01-3.47-8.39-3.83-13.14h16.42c.55,3.47,1.46,6.39,3.1,8.76,1.64,2.19,3.47,4.2,5.84,5.47,2.19,1.28,4.74,2.37,7.48,2.92,2.74,.73,5.47,.91,8.39,.91,7.48,0,13.14-1.46,16.97-4.56,3.83-3.1,5.66-7.12,5.66-12.23,0-2.19-.37-4.2-.91-5.84-.73-1.64-2.01-3.28-3.47-4.38-1.64-1.28-3.83-2.19-6.39-2.92-2.74-.55-6.02-.73-9.85-.73h-2.55c-1.09,0-2.01,0-3.1,.18h-2.92l-2.55,.37v-13.69h8.39c2.19,0,4.38-.36,6.75-.91Z"/>
        <path d="M149.3,1104.35c2.01-4.01,4.74-7.3,8.21-9.67,3.47-2.55,7.48-4.38,12.23-5.47,4.74-1.09,9.85-1.64,15.51-1.64,4.56,0,9.12,.36,13.5,1.46,4.38,.91,8.21,2.37,11.5,4.56,3.47,2.01,6.2,4.93,8.21,8.21,2.19,3.28,3.1,7.48,3.1,12.23v55.47c0,1.46,.36,2.92,1.28,4.01,.73,1.09,2.19,1.64,4.01,1.64,.73,0,1.64-.18,2.55-.37,.91,0,1.82-.18,2.74-.36v11.31c-1.28,.36-2.74,.73-4.01,.91-1.28,.37-2.92,.55-4.74,.55-2.92,0-5.29-.36-7.3-.73-2.19-.55-3.83-1.28-5.29-2.37-1.28-1.09-2.37-2.55-3.28-4.38-.73-1.64-1.09-3.83-1.46-6.39-2.01,2.19-4.2,4.2-6.39,6.02-2.19,2.01-4.74,3.65-7.66,4.93-2.74,1.46-5.84,2.56-9.31,3.47-3.47,.73-7.3,1.09-11.68,1.09-3.65,0-7.12-.55-10.58-1.82-3.47-1.1-6.75-2.92-9.49-5.11-2.74-2.37-4.93-5.29-6.57-8.76-1.82-3.28-2.55-7.3-2.55-11.86,0-4.93,.73-9.12,2.55-12.77,1.64-3.65,3.83-6.57,6.39-8.94,2.74-2.55,5.84-4.2,9.31-5.66,3.47-1.28,6.93-2.01,10.4-2.55l26.82-3.28c2.55-.18,4.56-1.28,6.02-2.92,1.46-1.82,2.19-4.38,2.19-8.21,0-5.84-1.82-9.85-5.66-12.41-3.83-2.55-9.12-3.83-16.24-3.83s-12.59,1.64-16.24,4.56c-3.47,3.1-5.66,7.66-6.02,13.87h-15.33c.18-5.84,1.28-10.77,3.28-14.78Zm51.09,35.4c-2.01,.55-4.2,1.1-6.39,1.46-2.37,.55-4.93,.91-7.48,1.09l-7.85,1.09c-2.92,.55-5.66,.91-8.21,1.82-2.37,.73-4.56,1.82-6.39,2.92-2.01,1.28-3.28,2.92-4.38,4.56-.91,1.82-1.46,3.83-1.46,6.2,0,2.74,.36,5.11,1.28,7.3,.91,2.01,2.01,3.83,3.65,5.11,1.46,1.46,3.28,2.55,5.29,3.28,2.19,.73,4.56,1.1,7.12,1.1,1.64,0,3.47-.18,5.47-.73,2.19-.36,4.2-.73,6.39-1.64,2.37-.73,4.38-1.82,6.57-2.92,2.01-1.28,4.01-2.74,5.66-4.38,1.64-1.82,2.92-3.65,4.01-6.02,.91-2.19,1.46-4.56,1.46-7.3v-15.33c-1.28,.91-2.92,1.64-4.74,2.37Z"/>
        <path d="M238.16,1209.27v-37.59h12.59c2.55-6.39,4.56-12.96,6.2-19.71,1.46-6.75,2.74-13.32,3.47-20.25,.91-6.75,1.46-13.68,1.64-20.44,.18-6.93,.37-13.87,.37-20.8h66.6v81.2h13.5v37.59h-15.33v-23.36h-73.72v23.36h-15.33Zm38.68-87.95c-.37,5.84-1.09,11.5-1.82,17.15-.73,5.84-1.64,11.5-2.92,16.97-1.28,5.66-2.74,11.13-4.74,16.24h45.25v-66.97h-34.49c-.55,5.47-.73,10.95-1.28,16.6Z"/>
        <path d="M361.33,1104.35c2.01-4.01,4.74-7.3,8.21-9.67,3.47-2.55,7.48-4.38,12.23-5.47,4.74-1.09,9.85-1.64,15.51-1.64,4.56,0,9.12,.36,13.5,1.46,4.38,.91,8.21,2.37,11.5,4.56,3.47,2.01,6.2,4.93,8.21,8.21,2.19,3.28,3.1,7.48,3.1,12.23v55.47c0,1.46,.36,2.92,1.28,4.01,.73,1.09,2.19,1.64,4.01,1.64,.73,0,1.64-.18,2.55-.37,.91,0,1.82-.18,2.74-.36v11.31c-1.28,.36-2.74,.73-4.01,.91-1.28,.37-2.92,.55-4.74,.55-2.92,0-5.29-.36-7.3-.73-2.19-.55-3.83-1.28-5.29-2.37-1.28-1.09-2.37-2.55-3.28-4.38-.73-1.64-1.09-3.83-1.46-6.39-2.01,2.19-4.2,4.2-6.39,6.02-2.19,2.01-4.74,3.65-7.66,4.93-2.74,1.46-5.84,2.56-9.31,3.47-3.47,.73-7.3,1.09-11.68,1.09-3.65,0-7.12-.55-10.58-1.82-3.47-1.1-6.75-2.92-9.49-5.11-2.74-2.37-4.93-5.29-6.57-8.76-1.82-3.28-2.55-7.3-2.55-11.86,0-4.93,.73-9.12,2.55-12.77,1.64-3.65,3.83-6.57,6.39-8.94,2.74-2.55,5.84-4.2,9.31-5.66,3.47-1.28,6.93-2.01,10.4-2.55l26.82-3.28c2.55-.18,4.56-1.28,6.02-2.92,1.46-1.82,2.19-4.38,2.19-8.21,0-5.84-1.82-9.85-5.66-12.41-3.83-2.55-9.12-3.83-16.24-3.83s-12.59,1.64-16.24,4.56c-3.47,3.1-5.66,7.66-6.02,13.87h-15.33c.18-5.84,1.28-10.77,3.28-14.78Zm51.09,35.4c-2.01,.55-4.2,1.1-6.39,1.46-2.37,.55-4.93,.91-7.48,1.09l-7.85,1.09c-2.92,.55-5.66,.91-8.21,1.82-2.37,.73-4.56,1.82-6.39,2.92-2.01,1.28-3.28,2.92-4.38,4.56-.91,1.82-1.46,3.83-1.46,6.2,0,2.74,.36,5.11,1.28,7.3,.91,2.01,2.01,3.83,3.65,5.11,1.46,1.46,3.28,2.55,5.29,3.28,2.19,.73,4.56,1.1,7.12,1.1,1.64,0,3.47-.18,5.47-.73,2.19-.36,4.2-.73,6.39-1.64,2.37-.73,4.38-1.82,6.57-2.92,2.01-1.28,4.01-2.74,5.66-4.38,1.64-1.82,2.92-3.65,4.01-6.02,.91-2.19,1.46-4.56,1.46-7.3v-15.33c-1.28,.91-2.92,1.64-4.74,2.37Z"/>
        <path d="M475.56,1103.62c1.09-2.19,2.37-4.38,4.01-6.2,1.64-2.01,3.65-3.65,6.02-5.29,2.19-1.28,4.74-2.55,7.85-3.28,2.92-.91,6.39-1.28,10.22-1.28,5.11,0,10.04,.91,14.78,2.92,4.74,2.01,8.76,4.93,12.41,8.76,3.65,4.01,6.57,8.94,8.58,14.78,2.19,6.02,3.28,12.77,3.28,20.62,0,9.85-.91,18.06-2.92,25s-4.74,12.41-8.58,16.79c-3.65,4.38-8.03,7.48-13.14,9.49-5.29,2.01-10.95,2.92-17.33,2.92-3.1,0-6.02-.36-8.76-1.28-2.74-.73-5.29-1.82-7.3-3.28-2.37-1.28-4.2-2.74-5.66-4.38-1.46-1.64-2.74-3.28-3.47-4.74h-.36v48.35h-16.42v-133.02h16.42v13.14h.36Zm.73,49.27c1.09,4.38,2.55,8.21,4.74,11.5,2.01,3.1,4.74,5.66,8.03,7.48,3.1,1.82,6.75,2.74,11.13,2.74s8.39-.91,11.86-2.74c3.28-1.82,5.84-4.38,8.03-7.48,2.19-3.28,3.65-7.12,4.74-11.5,.91-4.38,1.46-8.94,1.46-14.23s-.55-10.22-1.46-14.78c-1.09-4.56-2.55-8.39-4.74-11.68-2.19-3.28-4.74-5.84-8.03-7.66-3.47-1.82-7.3-2.74-11.86-2.74s-8.03,.91-11.13,2.74c-3.28,1.82-6.02,4.38-8.03,7.66-2.19,3.28-3.65,7.12-4.74,11.68-.91,4.56-1.46,9.31-1.46,14.78s.55,9.85,1.46,14.23Z"/>
        <path d="M641.06,1159.27c-2.01,6.2-4.74,11.5-8.58,15.88-3.83,4.38-8.58,7.85-14.05,10.22-5.47,2.37-11.68,3.47-18.61,3.47s-13.14-1.09-18.61-3.47c-5.47-2.37-10.04-5.84-13.87-10.22-3.83-4.38-6.75-9.67-8.76-15.88-2.01-6.39-3.1-13.32-3.1-21.17s1.09-14.78,3.1-20.98c2.01-6.2,4.93-11.5,8.76-15.88,3.83-4.38,8.39-7.85,13.87-10.22,5.47-2.37,11.68-3.47,18.61-3.47s13.14,1.09,18.61,3.47c5.47,2.37,10.22,5.84,14.05,10.22,3.83,4.38,6.57,9.67,8.58,15.88,2.19,6.2,3.1,13.14,3.1,20.98s-.91,14.78-3.1,21.17Zm-15.15-35.76c-1.09-4.38-2.92-8.21-5.29-11.5-2.37-3.1-5.29-5.66-8.76-7.48-3.47-1.82-7.48-2.74-12.04-2.74s-8.58,.91-12.04,2.74-6.39,4.38-8.76,7.48c-2.37,3.28-4.2,7.12-5.29,11.5-1.28,4.38-1.82,9.31-1.82,14.6s.55,10.22,1.82,14.6c1.09,4.56,2.92,8.39,5.29,11.68,2.37,3.1,5.29,5.66,8.76,7.48,3.47,1.82,7.48,2.74,12.04,2.74s8.58-.91,12.04-2.74c3.47-1.82,6.39-4.38,8.76-7.48,2.37-3.28,4.2-7.12,5.29-11.68,1.28-4.38,1.82-9.31,1.82-14.6s-.55-10.22-1.82-14.6Z"/>
        <path d="M712.04,1168.76l25.55-78.28h22.44v95.43h-15.33v-76.82h-.36l-25.18,76.82h-15.69l-25.18-76.82h-.37v76.82h-15.33v-95.43h23.9l25.18,78.28h.37Z"/>
      </g>
      <g>
        <g>
          <path d="M56.11,1312.42l-.13-.98h-2.05l-.13,.98h-6.31l3.13-13.09h8.65l3.14,13.09h-6.29Zm-1.67-4.85h1.01l-.39-2.87-.07-.63h-.12l-.07,.63-.38,2.87Z"/>
          <path d="M74.71,1299.33v4.34h-5.67v.58h.52c1.36,0,2.53,.11,3.51,.34,.98,.22,1.77,.65,2.36,1.27,.59,.62,.89,1.5,.89,2.63,0,1.04-.28,1.85-.85,2.43s-1.33,.97-2.28,1.19c-.95,.22-2.09,.32-3.43,.32h-6.95v-13.09h11.89Zm-4.77,9.21c.1-.12,.14-.31,.14-.6s-.06-.5-.17-.61c-.12-.11-.3-.17-.54-.17h-.32v1.55h.48c.17,0,.31-.06,.4-.17Z"/>
          <path d="M117.25,1312.42l-.13-.98h-2.05l-.13,.98h-6.31l3.13-13.09h8.65l3.14,13.09h-6.29Zm-1.67-4.85h1.01l-.39-2.87-.07-.63h-.12l-.07,.63-.38,2.87Z"/>
          <path d="M131.82,1299.33c1.95,0,3.38,.3,4.3,.91s1.38,1.53,1.38,2.77c0,.39-.06,.77-.19,1.14-.13,.37-.3,.68-.51,.93-.21,.25-.44,.41-.67,.48,.59,.21,1.07,.57,1.45,1.07,.38,.5,.56,1.12,.56,1.85,0,1.46-.52,2.48-1.57,3.07-1.05,.58-2.45,.87-4.19,.87h-7.91v-13.09h7.36Zm-.05,5.05c.08-.12,.12-.27,.12-.45s-.04-.33-.13-.44c-.08-.12-.2-.17-.36-.17h-.74v1.25h.77c.14,0,.25-.06,.33-.18Zm.1,4.07c.08-.12,.12-.28,.12-.49,0-.22-.04-.39-.13-.51s-.22-.19-.39-.19h-.8v1.37h.83c.17,0,.29-.06,.37-.18Z"/>
          <path d="M141.86,1311.96c-1.13-.55-1.99-1.34-2.58-2.38-.6-1.04-.9-2.28-.9-3.72s.3-2.67,.9-3.71c.6-1.04,1.46-1.83,2.58-2.37,1.13-.55,2.48-.82,4.05-.82s2.92,.27,4.05,.82c1.13,.55,1.99,1.34,2.59,2.37,.6,1.04,.9,2.27,.9,3.71s-.3,2.69-.9,3.72c-.6,1.04-1.46,1.83-2.59,2.38-1.13,.55-2.48,.82-4.05,.82s-2.92-.27-4.05-.82Zm4.75-5.38c.19-.2,.29-.45,.29-.74s-.1-.54-.29-.74c-.19-.2-.43-.3-.71-.3s-.52,.1-.71,.3c-.19,.2-.29,.45-.29,.74s.1,.54,.29,.74c.19,.2,.43,.3,.71,.3s.52-.1,.71-.3Z"/>
          <path d="M155.36,1307.03c.25-.33,.47-.67,.65-1.04,.19-.37,.35-.85,.5-1.45,.15-.6,.26-1.35,.33-2.23l.23-2.97h13.2v7.7h1.29v7.23h-6.04v-1.84h-5.6v1.84h-6.05v-7.23h1.5Zm8.51-3.38h-1.13l-.06,.48c-.06,.52-.17,1.01-.31,1.48-.14,.47-.4,.94-.78,1.41h2.27v-3.38Z"/>
          <path d="M109.41,1308.63c0,.83-.22,1.55-.67,2.18-.45,.62-1.15,1.12-2.11,1.47-.96,.35-2.17,.53-3.64,.53-1.37,0-2.58-.2-3.63-.6-1.05-.4-1.87-.98-2.45-1.76-.58-.78-.95-1.66-.95-2.77h5.31c.06,.1,.12,.38,.28,.59,.29,.19,.67,.2,.92,.19,.28,0,.54-.01,.75-.2,.04-.04,.2-.19,.21-.41,0-.13-.04-.23-.06-.27-.06-.12-.18-.21-.34-.28-.27-.11-.68-.17-1.24-.17h-1.67s-23.3,0-23.3,0c-.18-.58-.4-.98-.59-1.23-.19-.24-.69-1.05-1.77-1.31-.08-.02-.14-.03-.18-.04h27.51c.53,0,.9-.06,1.13-.18,.13-.07,.31-.21,.34-.43,.04-.3-.24-.53-.28-.56-.17-.13-.35-.15-.52-.17-.17-.02-.52-.02-.77,.12-.27,.15-.29,.56-.33,.65h-5.31c0-1.1,.29-1.87,.86-2.65,.58-.78,1.37-1.37,2.38-1.77,1.01-.4,2.16-.6,3.44-.6,1.93,0,3.48,.33,4.63,.99,1.16,.66,1.74,1.72,1.74,3.18,0,.6-.11,1.13-.32,1.58-.21,.45-.61,.81-1.2,1.1,.4,.15,.74,.38,1.02,.69,.28,.31,.49,.65,.63,1.03,.14,.38,.21,.74,.21,1.1Z"/>
        </g>
        <text class="cls-4" transform="translate(47.48 1333.64)"><tspan x="0" y="0">производство </tspan><tspan x="0" y="16.08">абсурдных бытовых</tspan><tspan x="0" y="32.16">вещей</tspan></text>
      </g>
      <text class="cls-4" transform="translate(252.48 1306.5)"><tspan x="0" y="0">ст. одинцово, </tspan><tspan x="0" y="16.08">ул. абсурдная 2, </tspan><tspan x="0" y="32.16">вход 2 // при входе </tspan><tspan x="0" y="48.24">иметь паспорт // </tspan><tspan x="0" y="64.32">другое удостоверение </tspan><tspan x="0" y="80.4">личности </tspan></text>
      <text class="cls-4" transform="translate(447.29 1306.5)"><tspan x="0" y="0">Не та жизнь, не та работа, все не то... </tspan><tspan x="0" y="16.08">Вот что нередко можно услышать, но это </tspan><tspan x="0" y="32.16">твое решение.</tspan><tspan x="0" y="48.24">Завод абсурда поможет сделать выбор! </tspan><tspan x="0" y="64.32">Не делать ничего (что само по себе абсурдно) </tspan><tspan x="0" y="80.4">или взять свою жизнь в руки.</tspan></text>
      <g>
        <text class="cls-4" transform="translate(785.98 1306.5)"><tspan x="0" y="0">телефон//</tspan><tspan x="0" y="16.08">89376634656</tspan></text>
        <text class="cls-4" transform="translate(785.99 1356.02)"><tspan x="0" y="0">почтовый адрес//</tspan><tspan x="0" y="16.08">abzavod@kringe.ru</tspan></text>
      </g>
      <path d="M100.57,883.45c-5.41,15.82-8.21,32.23-8.21,49.25s2.8,32.83,8.41,48.45c5.61,15.62,13.01,30.23,22.22,44.05h-10.21c-5.41-7.61-10.41-15.02-14.61-22.02-4.2-7.21-7.81-14.41-10.81-22.02-3-7.41-5.21-15.02-6.61-23.22-1.4-8.01-2.2-16.82-2.2-26.23s.8-17.82,2.4-26.03c1.4-8.01,3.6-15.82,6.61-23.22,3-7.41,6.61-14.81,10.81-22.02,4.2-7.01,9.01-14.21,14.41-21.42h10.21c-9.61,13.81-17.02,28.63-22.42,44.45Z"/>
      <path d="M215.09,986.96v-92.7h-57.26v92.7h-12.61v-103.31h82.48v103.31h-12.61Z"/>
      <path d="M263.54,903.27c3-7.21,7.81-12.81,14.41-16.82,6.61-3.8,14.01-5.81,22.42-5.81,7.81,0,14.82,1.4,20.62,4.4,5.81,3,10.61,6.81,14.41,11.81,3.8,5,6.81,10.81,8.61,17.42,1.8,6.61,2.8,13.61,2.8,21.02s-1,14.41-2.8,21.02c-1.8,6.61-4.8,12.21-8.61,17.22-3.8,5-8.61,9.01-14.41,11.81-5.81,3-12.81,4.4-20.62,4.4-3.8,0-7.61-.4-11.21-1.4-3.8-1-7.21-2.4-10.41-4.2-3.2-1.8-6.01-4.2-8.41-7.01-2.6-2.8-4.4-6.01-5.81-9.81h-.4v57.66h-12.61v-141.35h11.61v19.62h.4Zm52.25,72.07c4.2-2.6,7.81-5.81,10.61-10.01,2.6-4.2,4.6-8.81,6.01-14.21,1.2-5.21,1.8-10.41,1.8-15.82s-.6-10.61-1.8-16.02c-1.4-5.21-3.4-9.81-6.01-14.01-2.8-4.2-6.41-7.61-10.61-10.21-4.2-2.6-9.41-3.8-15.42-3.8-7.01,0-12.81,1.2-17.42,3.6-4.6,2.4-8.41,5.61-11.21,9.61-2.8,4-4.8,8.61-5.81,14.01-1.2,5.41-1.8,11.01-1.8,16.82,0,5.41,.6,10.61,2,15.82,1.2,5.41,3.2,10.01,6.21,14.21,2.8,4.2,6.61,7.41,11.21,10.01,4.6,2.6,10.21,4,16.82,4,6.01,0,11.21-1.4,15.42-4Z"/>
      <path d="M382.06,988.16c-4.2-1.2-8.01-3-11.01-5.61-3.2-2.4-5.61-5.61-7.41-9.41-1.8-3.8-2.8-8.21-2.8-13.41,0-7.21,1.6-12.81,4.8-17.02,3.2-4,7.41-7.01,12.81-9.21,5.21-2.2,11.21-3.6,17.82-4.6l20.02-2.4c2.6-.2,4.8-.6,7.01-1,2-.4,3.6-1.2,5.01-2.2,1.4-1,2.4-2.2,3.2-4,.6-1.8,1-4,1-6.81,0-4.2-.6-7.81-2-10.61-1.4-2.6-3.4-4.8-5.81-6.41-2.6-1.6-5.41-2.8-8.61-3.4-3.4-.6-6.81-.8-10.61-.8-8.01,0-14.62,1.8-19.62,5.61-5.01,3.8-7.81,10.01-8.01,18.42h-12.61c.8-12.21,5.01-21.02,12.61-26.43,7.41-5.41,17.22-8.21,29.23-8.21,4.6,0,9.01,.4,13.61,1.2,4.6,1,8.61,2.6,12.21,5.01,3.6,2.4,6.61,5.81,8.81,10.01,2.2,4.4,3.4,10.01,3.4,17.02v54.86c0,5.01,2.4,7.61,7.41,7.61,1.6,0,3-.2,4-.8v10.61l-3.8,.6c-1.2,.2-2.6,.2-4.4,.2-3.2,0-5.81-.4-7.61-1.4-2-.8-3.6-2-4.6-3.6-1-1.6-1.8-3.6-2-5.81-.4-2.2-.6-4.61-.6-7.21h-.4c-2.2,3.4-4.6,6.21-6.81,8.81-2.4,2.6-5.01,4.81-7.81,6.61-3,1.8-6.21,3-10.01,4-3.8,1-8.01,1.4-13.01,1.4s-9.21-.6-13.41-1.6Zm28.23-11.01c4.4-1.4,8.21-3.6,11.61-6.41,3.2-2.8,5.81-6.21,7.81-10.21,1.8-4,2.8-8.61,2.8-13.61v-16.42h-.4c-.8,1.4-2.4,2.6-4.6,3.2-2.2,.6-4.2,1.2-6.01,1.4-5.41,1-10.81,1.8-16.42,2.4-5.81,.8-11.01,2-15.62,3.4-4.6,1.4-8.41,3.6-11.41,6.41-3,2.8-4.6,6.61-4.6,11.61,0,3.2,.6,6.01,2,8.41,1.2,2.6,2.8,4.6,5.01,6.41,2.2,1.8,4.6,3.2,7.41,4.2,2.6,1,5.61,1.4,8.61,1.4,4.8,0,9.41-.8,13.81-2.2Z"/>
      <path d="M541.82,889.86c5.81,4.2,8.61,10.21,8.61,18.22,0,6.21-1.6,11.21-4.6,15.42-3.2,4.2-7.61,7.01-13.21,8.61v.4c6.81,1.2,12.21,3.8,16.02,8.01,3.8,4.2,5.81,10.01,5.81,17.62,0,9.41-3.2,16.42-9.41,21.42-6.21,5-15.42,7.41-27.63,7.41h-47.25v-103.31h47.25c10.61,0,18.62,2,24.43,6.21Zm-9.41,33.83c3.6-3,5.41-7.21,5.41-12.41,0-11.41-7.21-17.02-21.82-17.02h-33.23v34.04h33.23c7.21,0,12.61-1.6,16.42-4.61Zm3.2,47.65c4.2-3.2,6.21-8.01,6.21-14.61,0-6.01-2-10.61-6.21-13.81-4.2-3.2-10.81-4.8-19.62-4.8h-33.23v38.24h33.23c8.81,0,15.42-1.6,19.62-5.01Z"/>
      <path d="M586.07,943.51c2.2-12.61,3.4-28.03,3.4-46.25v-13.61h69.47v92.7h15.42v43.44h-12.61v-32.83h-86.09v32.83h-12.61v-43.44h12.21c5.01-9.21,8.61-20.22,10.81-32.83Zm15.62-42.04c0,17.42-1.2,32.23-3.8,44.65-2.6,12.61-5.81,22.62-9.61,30.23h58.06v-82.08h-44.65v7.21Z"/>
      <path d="M703.59,988.16c-4.2-1.2-8.01-3-11.01-5.61-3.2-2.4-5.61-5.61-7.41-9.41-1.8-3.8-2.8-8.21-2.8-13.41,0-7.21,1.6-12.81,4.8-17.02,3.2-4,7.41-7.01,12.81-9.21,5.21-2.2,11.21-3.6,17.82-4.6l20.02-2.4c2.6-.2,4.8-.6,7.01-1,2-.4,3.6-1.2,5.01-2.2,1.4-1,2.4-2.2,3.2-4,.6-1.8,1-4,1-6.81,0-4.2-.6-7.81-2-10.61-1.4-2.6-3.4-4.8-5.81-6.41-2.6-1.6-5.41-2.8-8.61-3.4-3.4-.6-6.81-.8-10.61-.8-8.01,0-14.62,1.8-19.62,5.61-5.01,3.8-7.81,10.01-8.01,18.42h-12.61c.8-12.21,5.01-21.02,12.61-26.43,7.41-5.41,17.22-8.21,29.23-8.21,4.6,0,9.01,.4,13.61,1.2,4.6,1,8.61,2.6,12.21,5.01,3.6,2.4,6.61,5.81,8.81,10.01,2.2,4.4,3.4,10.01,3.4,17.02v54.86c0,5.01,2.4,7.61,7.41,7.61,1.6,0,3-.2,4-.8v10.61l-3.8,.6c-1.2,.2-2.6,.2-4.4,.2-3.2,0-5.81-.4-7.61-1.4-2-.8-3.6-2-4.6-3.6-1-1.6-1.8-3.6-2-5.81-.4-2.2-.6-4.61-.6-7.21h-.4c-2.2,3.4-4.6,6.21-6.81,8.81-2.4,2.6-5.01,4.81-7.81,6.61-3,1.8-6.21,3-10.01,4-3.8,1-8.01,1.4-13.01,1.4s-9.21-.6-13.41-1.6Zm28.23-11.01c4.4-1.4,8.21-3.6,11.61-6.41,3.2-2.8,5.81-6.21,7.81-10.21,1.8-4,2.8-8.61,2.8-13.61v-16.42h-.4c-.8,1.4-2.4,2.6-4.6,3.2-2.2,.6-4.2,1.2-6.01,1.4-5.41,1-10.81,1.8-16.42,2.4-5.81,.8-11.01,2-15.62,3.4-4.6,1.4-8.41,3.6-11.41,6.41-3,2.8-4.6,6.61-4.6,11.61,0,3.2,.6,6.01,2,8.41,1.2,2.6,2.8,4.6,5.01,6.41,2.2,1.8,4.6,3.2,7.41,4.2,2.6,1,5.61,1.4,8.61,1.4,4.8,0,9.41-.8,13.81-2.2Z"/>
      <path d="M813.7,980.55c5.41-15.82,8.01-32.03,8.01-49.05s-2.8-32.83-8.41-48.45c-5.61-15.62-13.01-30.23-22.22-44.04h10.21c5.41,7.61,10.41,15.02,14.61,22.02,4.2,7.21,7.81,14.41,10.81,21.82,2.8,7.41,5.01,15.22,6.61,23.22,1.4,8.21,2.2,17.02,2.2,26.43s-.8,17.82-2.2,25.83c-1.6,8.21-3.8,16.02-6.81,23.42-3,7.41-6.61,14.82-10.81,22.02-4.2,7.01-9.01,14.21-14.41,21.42h-10.21c9.61-13.81,17.22-28.63,22.62-44.65Z"/>
      <path d="M880.37,980.55c5.41-15.82,8.01-32.03,8.01-49.05s-2.8-32.83-8.41-48.45c-5.61-15.62-13.01-30.23-22.22-44.04h10.21c5.41,7.61,10.41,15.02,14.61,22.02,4.2,7.21,7.81,14.41,10.81,21.82,2.8,7.41,5.01,15.22,6.61,23.22,1.4,8.21,2.2,17.02,2.2,26.43s-.8,17.82-2.2,25.83c-1.6,8.21-3.8,16.02-6.81,23.42-3,7.41-6.61,14.82-10.81,22.02-4.2,7.01-9.01,14.21-14.41,21.42h-10.21c9.61-13.81,17.22-28.63,22.62-44.65Z"/>
      <polygon class="cls-2" points="530.62 563.11 538.67 618.23 579.61 613.61 687.15 584.92 757.22 556.62 844.97 521.55 812.33 472.9 691.57 500.32 530.62 563.11"/>
      <g>
        <path d="M726.07,543.2c-.33-.22-.71-.26-1.13-.09l-1.96,.75,1.29,3.35,2.03-.78c.41-.16,.65-.42,.74-.79,.08-.37,.03-.8-.16-1.3-.21-.53-.47-.91-.8-1.14Z"/>
        <polygon points="686.8 548.05 686.51 548.15 686.87 549.76 688.36 557.21 690.88 556.36 687.5 549.55 686.8 548.05"/>
        <path d="M722.11,533.58c-.31-.2-.66-.23-1.04-.09l-1.82,.7,1.18,3.06,1.89-.73c.35-.13,.56-.39,.64-.76,.08-.37,.04-.78-.13-1.22s-.41-.76-.73-.97Z"/>
        <polygon points="551.81 583.17 551.51 583.22 551.63 584.87 551.99 592.45 554.6 591.98 552.27 584.75 551.81 583.17"/>
        <path d="M590.84,583.95c-.36-.22-.85-.26-1.48-.12l-.81,.18,.89,3.97,1.23-.28c.44-.1,.76-.32,.94-.68,.18-.35,.19-.89,.03-1.61-.17-.76-.43-1.25-.79-1.47Z"/>
        <path d="M794.29,501.94l.44,1.19c.47,1.29,.82,2.57,1.04,3.84,.23,1.26,.18,2.68-.14,4.24l5.32-2.7-4.02-7.91-2.64,1.34Z"/>
        <path d="M656.38,240.53l2.07-20.64s49.74,30.97,67.5-1.6c17.76-32.56-13.14-52.87-13.14-52.87,0,0,39.14-28.59,13.42-49.03-25.72-20.43-45.94-4.12-58.45,10.53l3.1-30.99-248.5,83.02,31.14,33.94c-5.16,4.96-12.13,12.66-18.21,23.39-4.65,8.2-19.13,33.71-12.07,65.22,1.39,6.22,5.74,27.38,23.9,41.84,29.15,23.23,75.16,23.37,75.16,23.37l1.21,188.13c-14.49-.36-23.87,10.92-22.76,19.13,.99,7.32,10.67,14.81,22.93,13.57,1.27,13.25,2.53,26.49,3.8,39.74,49.57-8.6,106.89-21.94,169.11-42.95,60.03-20.27,112.05-43.44,155.59-65.83l-195.78-277.98Zm-193.39,53.81c-12.42-30.92,18.36-58.19,18.36-58.19l40.29,43.64,.27,51.76s-46.49-6.29-58.91-37.21Zm95.55,309.87l-.8-2.47-5.3,.95,.13,2.6-16.32,2.94,2-35.28,22.36-4.02,14.19,32.37-16.27,2.93Zm48.61-14.3c-1.12,1.81-2.84,3.26-5.15,4.35-2.31,1.1-5.17,2.03-8.59,2.79l-17.8,3.99-7.51-33.54,30.46-6.82,2.49,11.12-14.53,3.25,.33,1.48,1.33-.3c3.49-.78,6.55-1.16,9.19-1.15,2.64,.01,4.91,.65,6.78,1.9,1.38,.93,2.43,2.3,3.15,4.12l-1.8-6.88,32.64-8.55,2.81,10.73-32.64,8.55-.18-.67c.31,2.19-.02,4.07-.99,5.63Zm89.44-22.05l-1.16-2.33-5.1,1.73,.52,2.55-15.7,5.33-.38-4.06c-.71,1.76-2.03,3.4-4.03,4.9-2.15,1.61-5.07,2.97-8.76,4.08-3.45,1.04-6.65,1.45-9.59,1.24-2.94-.21-5.44-1.07-7.49-2.58-2.05-1.51-3.5-3.66-4.34-6.45l13.36-4.01c.33,.64,.79,1.04,1.37,1.21,.58,.17,1.32,.12,2.22-.15,.74-.22,1.26-.53,1.55-.91,.29-.39,.38-.76,.27-1.14-.19-.65-.67-1.01-1.43-1.09-.76-.08-1.85,.09-3.25,.51l-4.21,1.26-1.95-6.49,4.19-1.26c1.32-.4,2.23-.83,2.71-1.3s.66-.92,.54-1.33c-.14-.45-.41-.75-.84-.9s-.99-.11-1.7,.1c-1.52,.46-2.21,1.38-2.07,2.76l-13.36,4.01c-.83-2.78-.82-5.36,.03-7.75s2.4-4.47,4.65-6.24c2.24-1.76,4.98-3.13,8.2-4.1,4.86-1.46,8.99-1.79,12.4-1,3.41,.79,5.67,3.01,6.77,6.68,.46,1.52,.59,2.92,.39,4.21-.19,1.29-.93,2.51-2.2,3.67,1.12,.09,2.15,.41,3.09,.97,.94,.56,1.73,1.26,2.36,2.1,.13,.18,.22,.36,.34,.54l-2.11-22.67,21.51-7.31,18.85,29.89-15.65,5.32Zm44.88-19.07c-2.02,2.41-5.17,4.44-9.45,6.09l-19.38,7.47-12.36-32.07,18.04-6.95c4.78-1.84,8.58-2.45,11.4-1.83,2.82,.62,4.82,2.45,5.99,5.48,.37,.96,.57,1.95,.61,2.98,.03,1.03-.09,1.95-.37,2.77-.28,.82-.68,1.42-1.2,1.8,1.65-.04,3.17,.38,4.56,1.26,1.4,.88,2.44,2.22,3.13,4.01,1.38,3.58,1.06,6.58-.96,9Zm32.48-12.81c-2.14,2.51-5.1,4.59-8.88,6.25-3.78,1.66-7.31,2.42-10.6,2.29-3.29-.13-6.19-1.13-8.73-3-2.53-1.87-4.56-4.54-6.08-8.01-1.52-3.46-2.1-6.74-1.76-9.87,.34-3.12,1.58-5.93,3.71-8.43,2.13-2.5,5.09-4.58,8.87-6.23,3.78-1.66,7.32-2.43,10.61-2.31,3.29,.12,6.2,1.11,8.73,2.97,2.53,1.86,4.55,4.52,6.07,7.98,1.52,3.47,2.11,6.77,1.78,9.9-.34,3.13-1.58,5.95-3.71,8.46Zm37.25-16.82l-13.11,6.66,2.18,4.3-14.17,7.2-8.59-16.92,3.52-1.79c.2-1.06,.29-2.13,.3-3.21,0-1.08-.18-2.41-.56-4-.37-1.59-1-3.46-1.89-5.62l-3-7.24,30.89-15.69,9.15,18.03,3.02-1.53,8.59,16.92-14.15,7.19-2.19-4.3Z"/>
        <path d="M758.67,523.04c-.67-.27-1.35-.26-2.03,.03-.68,.3-1.14,.79-1.4,1.47-.25,.68-.22,1.38,.09,2.09,.31,.71,.8,1.2,1.48,1.48,.67,.27,1.35,.26,2.03-.03s1.14-.79,1.4-1.47c.25-.68,.22-1.38-.09-2.09s-.8-1.2-1.48-1.48Z"/>
      </g>
      <g>
        <g>
          <path class="cls-1" d="M217.88,1159.81s-78.67-221.47-33.21-272.4c0,0,120.57-117.81,311.77-70.63,0,0,82.39,133.01,60.32,266.26,0,0-189.83,84.67-338.88,76.77Z"/>
          <path class="cls-1" d="M559.29,1027.43s139.61-8.25,102.53-95.87c-37.09-87.62-158.58-47.78-158.58-47.78l11.66,26.09s92.44-7.81,79.65,47.62c-12.8,55.43-60.62,40-60.62,40l25.37,29.94Z"/>
          <path class="cls-1" d="M239.95,860.11s-65.52-137.84-55.27-179.56c10.25-41.72-8.62-228.3-8.62-228.3,0,0-93.43,22.4-76.11-9.85,17.32-32.24,17.57-3.98,17.57-3.98,0,0-30.28-14.07-6.1-26.94,0,0-11.26-15.5,23.91-13.21,35.18,2.29,89.11,15.93,89.11,15.93,8.23,44.46,11.07,80.6,12.2,104.36,4.21,88.81-9.7,126.57,16.11,179.81,11.54,23.8,17.17,22.14,30.04,51.07,14.5,32.6,39.37,152.71,28.3,103.17h0"/>
          <path class="cls-1" d="M408.29,830.6s-7.6-169.43-44.31-195.59c-36.71-26.16-35.54-217.27-35.54-217.27,0,0,38.34-83.79,15.92-88.56-22.42-4.77-4.19,19.55-4.19,19.55,0,0,0-36.25-18.79-21.33-18.78,14.93,3.71,16.4,3.71,16.4,0,0-10.72-41.9-30.65-10.29-19.93,31.6-12.77,94.01-13.03,92.84s21.85,235.97,21.85,235.97l38.56,170.21,66.46-1.92Z"/>
        </g>
        <text class="cls-3" transform="translate(188.78 457.79) rotate(84.29)"><tspan x="0" y="0"> </tspan></text>
        <text class="cls-3" transform="translate(189.94 469.47) rotate(84.29)"><tspan x="0" y="0">п</tspan></text>
        <text class="cls-3" transform="translate(192.3 491.58) rotate(85)"><tspan x="0" y="0">р</tspan></text>
        <text class="cls-3" transform="translate(194.26 515.59) rotate(85.95)"><tspan x="0" y="0">о</tspan></text>
        <text class="cls-3" transform="translate(195.91 538.97) rotate(85.95)"><tspan x="0" y="0">и</tspan></text>
        <text class="cls-3" transform="translate(197.53 561.85) rotate(85.94)"><tspan x="0" y="0">з</tspan></text>
        <text class="cls-3" transform="translate(198.98 582.23) rotate(85.93)"><tspan x="0" y="0">в</tspan></text>
        <text class="cls-3" transform="translate(200.53 603.99) rotate(85.93)"><tspan x="0" y="0">о</tspan></text>
        <text class="cls-3" transform="translate(202.19 627.37) rotate(85.93)"><tspan x="0" y="0">д</tspan></text>
        <text class="cls-3" transform="translate(203.92 649.55) rotate(100.16)"><tspan x="0" y="0">с</tspan></text>
        <text class="cls-3" transform="translate(200.05 671.12) rotate(100.16)"><tspan x="0" y="0">т</tspan></text>
        <text class="cls-3" transform="translate(194.88 699.52) rotate(69.39)"><tspan x="0" y="0">в</tspan></text>
        <text class="cls-3" transform="translate(202.6 720.05) rotate(69.39)"><tspan x="0" y="0">о</tspan></text>
        <text class="cls-3" transform="translate(210.84 741.99) rotate(69.39)"><tspan x="0" y="0"> </tspan></text>
        <text class="cls-3" transform="translate(214.95 753.08) rotate(69.08)"><tspan x="0" y="0">а</tspan></text>
        <text class="cls-3" transform="translate(223.02 773.75) rotate(68.12)"><tspan x="0" y="0">б</tspan></text>
        <text class="cls-3" transform="translate(231.75 795.5) rotate(68.11)"><tspan x="0" y="0">с</tspan></text>
        <text class="cls-3" transform="translate(239.92 815.79) rotate(68.24)"><tspan x="0" y="0">у</tspan></text>
        <text class="cls-3" transform="translate(247.93 832.46) rotate(77.65)"><tspan x="0" y="0">р</tspan></text>
        <text class="cls-3" transform="translate(252.67 850.37) rotate(110.93)"><tspan x="0" y="0"> </tspan></text>
        <text class="cls-3" transform="translate(251.84 857.24) rotate(138.84)"><tspan x="0" y="0">д</tspan></text>
        <text class="cls-3" transform="translate(232.74 871.46) rotate(143.48)"><tspan x="0" y="0">н</tspan></text>
        <text class="cls-3" transform="translate(209.01 886.33) rotate(128.44)"><tspan x="0" y="0">ы</tspan></text>
        <text class="cls-3" transform="translate(191.32 918.49) rotate(100.77)"><tspan x="0" y="0">х</tspan></text>
        <text class="cls-3" transform="translate(188.03 941.58) rotate(91.05)"><tspan x="0" y="0"> </tspan></text>
        <text class="cls-3" transform="translate(187.2 954.81) rotate(86.47)"><tspan x="0" y="0">б</tspan></text>
        <text class="cls-3" transform="translate(189.68 980.26) rotate(79.69)"><tspan x="0" y="0">ы</tspan></text>
        <text class="cls-3" transform="translate(194.74 1008.09) rotate(79.69)"><tspan x="0" y="0">т</tspan></text>
        <text class="cls-3" transform="translate(198.08 1026.46) rotate(79.7)"><tspan x="0" y="0">о</tspan></text>
        <text class="cls-3" transform="translate(202.84 1052.6) rotate(70.11)"><tspan x="0" y="0">в</tspan></text>
        <text class="cls-3" transform="translate(210.29 1072.9) rotate(71.6)"><tspan x="0" y="0">ы</tspan></text>
        <text class="cls-3" transform="translate(222.32 1096.26) rotate(100.52)"><tspan x="0" y="0">х</tspan></text>
        <text class="cls-3" transform="translate(223.67 1128.03) rotate(62.13)"><tspan x="0" y="0"> </tspan></text>
        <text class="cls-3" transform="translate(244.05 1148.41) rotate(3.08)"><tspan x="0" y="0">в</tspan></text>
        <text class="cls-3" transform="translate(268.26 1149.34) rotate(-4.43)"><tspan x="0" y="0">е</tspan></text>
        <text class="cls-3" transform="translate(291.96 1147.58) rotate(-10.29)"><tspan x="0" y="0">щ</tspan></text>
        <text class="cls-3" transform="translate(326.42 1141.06) rotate(-13.42)"><tspan x="0" y="0">е</tspan></text>
        <text class="cls-3" transform="translate(347.77 1135.97) rotate(-15.21)"><tspan x="0" y="0">й</tspan></text>
      </g>
    </g>
  </g>
</svg>