<?xml version="1.0" encoding="UTF-8"?>
<svg id="Layer_2" data-name="Layer 2" xmlns="http://www.w3.org/2000/svg" viewBox="0 0 948.74 1423.12">
  <defs>
    <style>
      .cls-1 {
        font-size: 27.14px;
      }

      .cls-1, .cls-2, .cls-3, .cls-4 {
        font-family: Helvetica-LightOblique, Helvetica;
        font-style: oblique;
        font-weight: 300;
      }

      .cls-1, .cls-5 {
        fill: #fff;
      }

      .cls-6 {
        font-family: CodecPro-Fat, 'Codec Pro';
        font-size: 25.1px;
        font-weight: 900;
      }

      .cls-6, .cls-7 {
        fill: #e94889;
      }

      .cls-2 {
        font-size: 26.18px;
      }

      .cls-8 {
        fill: #1d1d1b;
      }

      .cls-3 {
        font-size: 25.93px;
      }

      .cls-4 {
        font-size: 13.4px;
      }
    </style>
  </defs>
  <g id="_Слой_1" data-name="Слой 1">
    <g>
      <rect class="cls-7" x="0" y="0" width="948.74" height="1423.12"/>
      <g>
        <g>
          <path d="M56.14,1309.87l-.13-.98h-2.05l-.13,.98h-6.31l3.13-13.09h8.65l3.14,13.09h-6.29Zm-1.67-4.85h1.01l-.39-2.87-.07-.63h-.12l-.07,.63-.38,2.87Z"/>
          <path d="M74.74,1296.78v4.34h-5.67v.58h.52c1.36,0,2.53,.11,3.51,.34,.98,.22,1.77,.65,2.36,1.27,.59,.62,.89,1.5,.89,2.63,0,1.04-.28,1.85-.85,2.43s-1.33,.97-2.28,1.19c-.95,.22-2.09,.32-3.43,.32h-6.95v-13.09h11.89Zm-4.77,9.21c.1-.12,.14-.31,.14-.6s-.06-.5-.17-.61c-.12-.11-.3-.17-.54-.17h-.32v1.55h.48c.17,0,.31-.06,.4-.17Z"/>
          <path d="M117.28,1309.87l-.13-.98h-2.05l-.13,.98h-6.31l3.13-13.09h8.65l3.14,13.09h-6.29Zm-1.67-4.85h1.01l-.39-2.87-.07-.63h-.12l-.07,.63-.38,2.87Z"/>
          <path d="M131.86,1296.78c1.95,0,3.38,.3,4.3,.91,.92,.61,1.38,1.53,1.38,2.77,0,.39-.06,.77-.19,1.14-.13,.37-.3,.68-.51,.93-.21,.25-.44,.41-.67,.48,.59,.21,1.07,.57,1.45,1.07,.38,.5,.56,1.12,.56,1.85,0,1.46-.52,2.48-1.57,3.07-1.05,.58-2.45,.87-4.19,.87h-7.91v-13.09h7.36Zm-.05,5.05c.08-.12,.12-.27,.12-.45s-.04-.33-.13-.44c-.08-.12-.2-.17-.36-.17h-.74v1.25h.77c.14,0,.25-.06,.33-.18Zm.1,4.07c.08-.12,.12-.28,.12-.49,0-.22-.04-.39-.13-.51s-.22-.19-.39-.19h-.8v1.37h.83c.17,0,.29-.06,.37-.18Z"/>
          <path d="M141.89,1309.41c-1.13-.55-1.99-1.34-2.58-2.38-.6-1.04-.9-2.28-.9-3.72s.3-2.67,.9-3.71c.6-1.04,1.46-1.83,2.58-2.37,1.13-.55,2.48-.82,4.05-.82s2.92,.27,4.05,.82c1.13,.55,1.99,1.34,2.59,2.37,.6,1.04,.9,2.27,.9,3.71s-.3,2.69-.9,3.72c-.6,1.04-1.46,1.83-2.59,2.38-1.13,.55-2.48,.82-4.05,.82s-2.92-.27-4.05-.82Zm4.75-5.38c.19-.2,.29-.45,.29-.74s-.1-.54-.29-.74c-.19-.2-.43-.3-.71-.3s-.52,.1-.71,.3c-.19,.2-.29,.45-.29,.74s.1,.54,.29,.74c.19,.2,.43,.3,.71,.3s.52-.1,.71-.3Z"/>
          <path d="M155.4,1304.48c.25-.33,.47-.67,.65-1.04,.19-.37,.35-.85,.5-1.45,.15-.6,.26-1.35,.33-2.23l.23-2.97h13.2v7.7h1.29v7.23h-6.04v-1.84h-5.6v1.84h-6.05v-7.23h1.5Zm8.51-3.38h-1.13l-.06,.48c-.06,.52-.17,1.01-.31,1.48-.14,.47-.4,.94-.78,1.41h2.27v-3.38Z"/>
          <path d="M109.45,1306.08c0,.83-.22,1.55-.67,2.18-.45,.62-1.15,1.12-2.11,1.47s-2.17,.53-3.64,.53c-1.37,0-2.58-.2-3.63-.6-1.05-.4-1.87-.98-2.45-1.76-.58-.78-.95-1.66-.95-2.77h5.31c.06,.1,.12,.38,.28,.59,.29,.19,.67,.2,.92,.19,.28,0,.54-.01,.75-.2,.04-.04,.2-.19,.21-.41,0-.13-.04-.23-.06-.27-.06-.12-.18-.21-.34-.28-.27-.11-.68-.17-1.24-.17h-1.67s-23.3,0-23.3,0c-.18-.58-.4-.98-.59-1.23-.19-.24-.69-1.05-1.77-1.31-.08-.02-.14-.03-.18-.04h27.51c.53,0,.9-.06,1.13-.18,.13-.07,.31-.21,.34-.43,.04-.3-.24-.53-.28-.56-.17-.13-.35-.15-.52-.17-.17-.02-.52-.02-.77,.12-.27,.15-.29,.56-.33,.65h-5.31c0-1.1,.29-1.87,.86-2.65,.58-.78,1.37-1.37,2.38-1.77,1.01-.4,2.16-.6,3.44-.6,1.93,0,3.48,.33,4.63,.99,1.16,.66,1.74,1.72,1.74,3.18,0,.6-.11,1.13-.32,1.58-.21,.45-.61,.81-1.2,1.1,.4,.15,.74,.38,1.02,.69,.28,.31,.49,.65,.63,1.03,.14,.38,.21,.74,.21,1.1Z"/>
        </g>
        <text class="cls-4" transform="translate(47.51 1331.09)"><tspan x="0" y="0">производство </tspan><tspan x="0" y="16.08">абсурдных бытовых</tspan><tspan x="0" y="32.16">вещей</tspan></text>
      </g>
      <text class="cls-4" transform="translate(252.51 1303.95)"><tspan x="0" y="0">ст. одинцово, </tspan><tspan x="0" y="16.08">ул. абсурдная 2, </tspan><tspan x="0" y="32.16">вход 2 // при входе </tspan><tspan x="0" y="48.24">иметь паспорт // </tspan><tspan x="0" y="64.32">другое удостоверение </tspan><tspan x="0" y="80.4">личности </tspan></text>
      <text class="cls-4" transform="translate(447.32 1303.95)"><tspan x="0" y="0">Не та жизнь, не та работа, все не то... </tspan><tspan x="0" y="16.08">Вот что нередко можно услышать, но это </tspan><tspan x="0" y="32.16">твое решение.</tspan><tspan x="0" y="48.24">Завод абсурда поможет сделать выбор! </tspan><tspan x="0" y="64.32">Не делать ничего (что само по себе абсурдно) </tspan><tspan x="0" y="80.4">или взять свою жизнь в руки.</tspan></text>
      <g>
        <text class="cls-4" transform="translate(786.02 1303.95)"><tspan x="0" y="0">телефон//</tspan><tspan x="0" y="16.08">89376634656</tspan></text>
        <text class="cls-4" transform="translate(786.02 1353.46)"><tspan x="0" y="0">почтовый адрес//</tspan><tspan x="0" y="16.08">abzavod@kringe.ru</tspan></text>
      </g>
      <g>
        <path class="cls-8" d="M122.78,97.65c6.25,4.69,9.18,11.33,9.18,20.13,0,4.69-.98,8.79-3.32,11.92-2.35,3.32-5.28,6.06-8.99,8.6,5.28,1.95,9.57,5.08,12.7,8.79,3.32,3.91,4.88,8.79,4.88,14.85,0,4.69-.78,8.99-2.34,12.9-1.76,3.71-4.1,7.03-7.23,9.77-3.32,2.54-7.42,4.49-12.31,6.06-5.08,1.37-11.14,2.15-17.78,2.15H51.26V90.62h43.57c12.51,0,21.69,2.34,27.94,7.03Zm-13.48,32.63c3.52-2.34,5.28-6.06,5.28-10.94,0-2.74-.59-5.08-1.56-7.03-.98-1.76-2.15-3.32-3.71-4.49-1.76-1.17-3.32-1.95-5.47-2.54-1.95-.39-4.1-.59-6.06-.59h-28.92v29.11h26.57c5.86,0,10.55-1.17,13.87-3.52Zm-2.15,47.29c3.13-.59,5.47-1.56,7.43-3.13,1.76-1.37,3.13-2.93,3.91-5.08,.78-1.95,1.17-4.1,1.17-6.64s-.39-4.69-1.17-6.64c-.78-2.15-2.15-3.71-3.91-5.08-1.95-1.37-4.3-2.54-7.43-3.13-3.13-.78-7.03-1.17-11.72-1.17h-26.57v32.05h26.57c4.69,0,8.6-.39,11.72-1.17Z"/>
        <path class="cls-8" d="M206.6,129.11c5.47,0,10.55,.78,15.05,2.15,4.3,1.56,8.01,3.71,11.14,6.45,2.93,2.74,5.47,6.06,7.03,9.97,1.56,3.91,2.34,8.4,2.34,13.29s-.78,9.38-2.34,13.29c-1.56,3.91-4.1,7.23-7.03,9.97-3.13,2.74-6.84,4.88-11.14,6.45-4.49,1.37-9.58,2.15-15.05,2.15h-48.26V90.62h17.59v38.49h30.68Zm5.08,48.65c2.54-.59,4.88-1.56,6.84-3.13,1.76-1.37,3.32-3.13,4.3-5.47,1.17-2.15,1.76-4.88,1.76-8.21,0-3.13-.59-5.86-1.76-8.21-.98-2.15-2.54-4.1-4.49-5.47-2.15-1.37-4.49-2.54-7.42-3.13-2.74-.59-5.86-.98-9.38-.98h-25.6v35.56h27.16c3.13,0,5.86-.2,8.6-.98Zm44.36,15.05V90.62h17.59v102.19h-17.59Z"/>
        <path class="cls-8" d="M378.35,54.67c-.39,1.56-.78,2.93-1.37,4.49-.78,1.56-1.56,3.13-2.54,4.49-1.17,1.76-2.74,3.13-4.49,4.49-1.17,.59-1.95,1.37-2.74,1.76-.98,.59-1.95,.98-3.32,1.37-1.17,.39-2.74,.59-4.69,.98-2.15,.2-4.69,.39-8.01,.39l-7.23,.2c-4.88,.2-9.38,1.17-13.29,2.93-4.1,1.95-7.62,4.49-10.55,7.82-3.13,3.32-5.47,7.43-7.62,12.11-1.95,4.69-3.32,9.97-4.3,15.83,1.37-2.54,2.93-5.08,4.88-7.62,1.95-2.34,4.49-4.49,7.42-6.45,2.93-1.95,6.45-3.52,10.36-4.69,3.91-1.17,8.4-1.76,13.68-1.76,5.86,0,11.53,.98,16.8,3.13,5.28,2.15,9.97,5.28,14.07,9.38,3.91,4.3,7.03,9.57,9.38,15.83,2.34,6.06,3.52,13.29,3.52,21.69,0,2.54-.2,5.67-.59,9.38-.39,3.71-1.17,7.62-2.34,11.72-1.17,4.1-2.74,8.21-4.89,12.11-2.15,4.1-4.88,7.82-8.4,10.94-3.52,3.13-7.82,5.67-12.9,7.82-5.08,1.95-11.14,2.93-18.17,2.93-2.93,0-6.06-.2-9.38-.59-3.32-.59-6.45-1.56-9.77-2.74-3.32-1.17-6.45-3.13-9.57-5.28-3.13-2.34-5.86-5.28-8.4-8.79-1.17-1.95-2.54-3.91-3.71-6.25-1.37-2.34-2.34-5.08-3.52-8.4-.98-3.32-1.76-7.23-2.34-11.72-.59-4.49-.98-9.77-.98-16.02,0-4.1,.2-8.6,.59-13.87,.39-5.08,.98-10.36,1.95-15.63,.98-5.47,2.34-10.55,3.91-15.63,1.56-4.88,3.52-9.38,6.06-13.09,2.74-4.1,5.47-7.23,8.4-9.97,2.93-2.54,6.06-4.49,9.38-5.86,3.32-1.56,6.84-2.54,10.75-3.32,3.71-.59,7.82-.98,12.31-1.17l6.25-.2c1.95,0,3.71-.2,5.28-.39,1.37,0,2.54-.39,3.52-.78s1.76-.98,2.15-1.76c.59-.59,1.17-1.76,1.56-3.13h13.29c0,.98-.2,2.15-.39,3.32Zm-67.02,95.75c.2,2.54,.59,5.28,1.37,8.01,.59,2.93,1.76,5.86,2.93,8.6,1.37,2.74,3.32,5.28,5.47,7.43s4.89,3.91,8.01,5.28c3.32,1.37,7.23,2.15,11.72,2.15,5.08,0,9.18-.98,12.7-2.54,3.32-1.56,6.25-3.71,8.4-6.25,2.15-2.54,3.91-5.28,5.27-8.6,.98-3.13,1.95-6.06,2.54-8.99,.39-3.13,.78-5.67,.98-8.21v-5.47c0-4.69-.39-9.18-1.56-13.68-.98-4.49-2.74-8.4-5.08-11.92-2.34-3.32-5.27-6.06-8.99-8.21-3.71-2.15-8.21-3.13-13.68-3.13s-9.97,.98-13.68,2.93c-3.91,2.15-7.03,4.88-9.38,8.4-2.54,3.52-4.3,7.62-5.67,12.31-1.17,4.69-1.76,9.77-1.76,15.05,0,1.95,0,4.3,.39,6.84Z"/>
        <path class="cls-8" d="M490.51,173.27c-2.34,4.3-5.47,8.01-9.38,11.33-3.71,3.52-8.21,6.25-13.29,8.21-5.28,2.15-11.14,3.13-17.39,3.13-6.84,0-13.09-1.17-18.95-3.32-5.86-2.34-10.94-5.67-15.05-10.36-4.3-4.49-7.62-10.16-9.97-17-2.54-6.84-3.71-15.05-3.71-24.23,0-6.25,.59-11.92,2.15-17,1.37-5.08,3.13-9.57,5.47-13.48,2.34-3.91,5.08-7.43,8.01-10.36,3.13-2.93,6.25-5.28,9.77-7.23,3.32-1.76,6.84-3.13,10.36-4.1,3.52-.98,7.03-1.37,10.36-1.37,7.03,0,13.29,.98,19.15,3.13,5.86,2.15,10.75,5.28,15.05,9.57,4.1,4.3,7.23,9.77,9.77,16.02,2.15,6.64,3.32,14.26,3.32,22.86v8.79h-74.64c0,4.88,.78,9.38,2.15,13.48,1.17,4.1,3.13,7.43,5.67,10.36,2.34,2.93,5.47,5.08,8.99,6.64,3.52,1.56,7.43,2.34,11.92,2.34s8.4-.59,11.53-1.95c3.13-1.17,5.67-2.74,7.82-4.88,2.15-1.95,3.71-4.1,5.08-6.45,1.37-2.54,2.34-4.88,3.32-7.23h17c-.59,4.49-2.15,8.79-4.49,13.09Zm-14.07-52.76c-1.56-3.91-3.52-7.03-5.86-9.77-2.34-2.54-5.47-4.49-8.79-6.06-3.52-1.37-7.23-1.95-11.53-1.95-3.91,0-7.62,.78-10.94,2.34-3.52,1.56-6.45,3.71-8.99,6.45-2.54,2.74-4.49,6.06-6.06,9.77-1.56,3.91-2.54,8.01-2.74,12.51h57.06c-.2-4.88-.98-9.38-2.15-13.29Z"/>
        <path class="cls-8" d="M533.69,104.69c1.17-2.34,2.54-4.69,4.3-6.64,1.76-2.15,3.91-3.91,6.45-5.67,2.34-1.37,5.08-2.74,8.4-3.52,3.13-.98,6.84-1.37,10.94-1.37,5.47,0,10.75,.98,15.83,3.13,5.08,2.15,9.38,5.28,13.29,9.38,3.91,4.3,7.03,9.57,9.18,15.83,2.34,6.45,3.52,13.68,3.52,22.08,0,10.55-.98,19.34-3.13,26.77-2.15,7.43-5.08,13.29-9.18,17.98-3.91,4.69-8.6,8.01-14.07,10.16-5.67,2.15-11.72,3.13-18.56,3.13-3.32,0-6.45-.39-9.38-1.37-2.93-.78-5.67-1.95-7.82-3.52-2.54-1.37-4.49-2.93-6.06-4.69-1.56-1.76-2.93-3.52-3.71-5.08h-.39v51.78h-17.59V90.62h17.59v14.07h.39Zm.78,52.76c1.17,4.69,2.74,8.79,5.08,12.31,2.15,3.32,5.08,6.06,8.6,8.01,3.32,1.95,7.23,2.93,11.92,2.93s8.99-.98,12.7-2.93c3.52-1.95,6.25-4.69,8.6-8.01,2.34-3.52,3.91-7.62,5.08-12.31,.98-4.69,1.56-9.57,1.56-15.24s-.59-10.94-1.56-15.83c-1.17-4.88-2.74-8.99-5.08-12.51s-5.08-6.25-8.6-8.21c-3.71-1.95-7.82-2.93-12.7-2.93s-8.6,.98-11.92,2.93c-3.52,1.95-6.45,4.69-8.6,8.21-2.34,3.52-3.91,7.62-5.08,12.51-.98,4.88-1.56,9.97-1.56,15.83s.59,10.55,1.56,15.24Z"/>
        <path class="cls-8" d="M643.31,168.97l50.22-78.36h20.13v102.19h-17.78V114.46h-.39l-50.02,78.36h-20.13V90.62h17.59v78.36h.39Z"/>
      </g>
      <g>
        <path class="cls-8" d="M117.95,389.7c-5.28-2.74-9.57-6.45-12.51-11.33-3.13-4.88-5.08-10.55-5.67-17-.78-6.45-.39-13.29,1.17-20.52,1.56-7.23,4.1-14.07,7.62-20.52,3.32-6.45,7.62-12.11,12.7-17,5.08-4.88,10.94-8.6,17.39-11.53,6.45-2.93,13.68-4.3,21.3-4.3,10.75,0,19.34,2.93,25.79,8.6,6.25,5.67,8.79,14.46,7.82,25.99h-12.31c-.2-7.62-1.95-13.48-5.67-17.78-3.71-4.3-9.58-6.45-17.78-6.45-5.86,0-11.33,1.17-16.22,3.71-4.88,2.54-9.38,5.67-13.09,9.77s-7.03,8.6-9.57,13.68c-2.54,5.28-4.49,10.55-5.67,15.83-.98,5.28-1.37,10.55-.98,15.63,.39,5.28,1.56,9.77,3.71,13.87,2.15,4.1,5.08,7.23,8.99,9.77s8.79,3.71,14.66,3.71c3.71,0,7.42-.78,11.14-2.15,3.71-1.37,7.03-3.52,10.36-6.06,3.13-2.54,5.86-5.47,8.4-8.99,2.34-3.52,4.1-7.43,5.47-11.53h12.31c-4.3,12.31-10.75,21.69-19.54,28.53-8.79,6.84-18.76,10.36-30.29,10.36-7.62,0-14.26-1.37-19.54-4.3Z"/>
        <path class="cls-8" d="M286.77,296.49c4.69,4.1,6.25,9.97,4.49,17.78-1.37,6.06-3.91,10.94-7.82,15.05-3.91,4.1-8.79,6.84-14.46,8.4l-.2,.39c6.45,1.17,11.14,3.71,14.07,7.82,2.93,4.1,3.52,9.77,1.95,17.2-1.95,9.18-6.45,16.02-13.48,20.91-7.23,4.88-16.61,7.23-28.53,7.23h-46.11l21.3-100.83h46.11c10.36,0,17.78,1.95,22.67,6.06Zm-23.06,79.53c4.69-3.13,7.82-7.82,9.18-14.26,1.17-5.86,0-10.36-3.32-13.48-3.52-3.13-9.57-4.69-18.17-4.69h-32.44l-7.82,37.32h32.44c8.6,0,15.24-1.56,20.13-4.88Zm6.84-46.51c4.1-2.93,6.84-7.03,7.82-12.11,2.34-11.14-3.52-16.61-17.78-16.61h-32.44l-7.03,33.22h32.44c7.03,0,12.7-1.56,17-4.49Z"/>
        <path class="cls-8" d="M320.38,389.7c-5.28-2.74-9.58-6.45-12.51-11.33-3.13-4.88-5.08-10.55-5.67-17-.78-6.45-.39-13.29,1.17-20.52,1.56-7.23,4.1-14.07,7.62-20.52,3.32-6.45,7.62-12.11,12.7-17s10.94-8.6,17.39-11.53c6.45-2.93,13.68-4.3,21.3-4.3s14.26,1.37,19.54,4.3c5.27,2.93,9.57,6.64,12.51,11.53,2.93,4.88,4.88,10.55,5.67,17,.59,6.45,.2,13.29-1.37,20.52-1.56,7.23-4.1,14.07-7.42,20.52-3.52,6.45-7.82,12.11-12.7,17-5.08,4.88-10.94,8.6-17.39,11.33-6.45,2.93-13.68,4.3-21.3,4.3s-14.26-1.37-19.54-4.3Zm37.91-9.57c4.89-2.54,9.38-5.67,13.09-9.77,3.71-4.1,7.03-8.6,9.57-13.87,2.54-5.08,4.49-10.36,5.47-15.63,1.17-5.28,1.56-10.55,1.17-15.83-.39-5.08-1.56-9.57-3.71-13.68-2.15-4.1-5.08-7.23-8.99-9.77-3.91-2.54-8.79-3.71-14.65-3.71s-11.33,1.17-16.22,3.71c-4.88,2.54-9.38,5.67-13.09,9.77-3.71,4.1-7.03,8.6-9.57,13.68-2.54,5.28-4.49,10.55-5.67,15.83-.98,5.28-1.37,10.55-.98,15.63,.39,5.28,1.56,9.77,3.71,13.87,2.15,4.1,5.08,7.23,8.99,9.77s8.79,3.71,14.65,3.71,11.33-1.17,16.22-3.71Z"/>
        <path class="cls-8" d="M495.65,290.44h15.24l-21.3,100.83h-12.31l18.17-86.37-73.86,86.37h-15.24l21.3-100.83h12.31l-18.37,86.37,74.06-86.37Zm-41.23-21.49c-3.71-4.3-5.08-10.55-4.49-18.76h7.62c-.39,4.88,.78,8.79,3.71,11.72,2.93,2.93,7.23,4.3,13.09,4.3s10.55-1.37,14.66-4.3c4.1-2.74,7.23-6.64,9.38-11.72h7.62c-3.13,8.21-7.42,14.46-13.09,18.76-5.67,4.49-12.7,6.64-20.91,6.64s-14.07-2.15-17.59-6.64Z"/>
      </g>
      <g>
        <path class="cls-8" d="M76.08,501.73c-4.49,14.07-6.64,30.09-6.64,48.26s2.54,35.37,7.62,50.61c3.13,9.38,9.57,23.06,18.76,40.64h-11.53c-9.18-14.46-15.05-23.64-17.2-27.75-2.15-3.91-4.69-9.38-7.23-16.22-3.52-9.57-6.06-19.54-7.42-30.29-.78-5.47-1.17-10.75-1.17-15.83,0-18.76,2.93-35.56,8.99-50.22,3.71-9.38,11.53-23.45,23.45-42.01h11.92c-9.97,19.34-16.61,33.61-19.54,42.79Z"/>
        <path class="cls-8" d="M141.73,569.93c-1.56,8.4-3.52,15.05-6.25,20.13-2.54,5.08-5.86,8.6-9.58,10.75-3.71,1.95-8.01,3.13-12.9,3.13-1.76,0-3.32-.39-4.49-.78-1.37-.59-2.34-1.17-3.13-1.76v-15.44c2.54,.98,4.69,1.37,6.64,1.37,1.37,0,2.74-.2,3.91-.59,1.17-.59,2.34-1.37,3.52-2.54,.98-1.37,2.15-3.13,3.13-5.47,.78-2.34,1.76-5.47,2.54-9.18,.59-3.71,1.37-8.21,1.76-13.48,.39-5.47,.78-11.72,.98-19.15l.78-37.71h73.47v102.19h-17.59v-86.95h-39.08l-.78,24.62c-.39,12.31-1.37,22.67-2.93,30.87Z"/>
        <path class="cls-8" d="M245.87,577.55l50.22-78.36h20.13v102.19h-17.78v-78.36h-.39l-50.02,78.36h-20.13v-102.19h17.59v78.36h.39Z"/>
        <path class="cls-8" d="M390.86,562.7c-4.69,.78-8.99,1.17-12.9,1.17-13.48,0-23.84-2.74-30.29-8.01-6.64-5.28-9.97-13.48-9.97-24.82v-31.85h17.59v28.33c0,3.91,.39,7.23,1.37,9.97,.78,2.74,2.34,5.08,4.49,6.84,2.15,1.76,4.89,3.32,8.4,4.1,3.32,.78,7.62,1.37,12.51,1.37,1.37,0,3.13-.2,4.88-.39,1.95-.39,3.71-.59,5.86-.98,1.95-.39,3.91-.78,5.67-1.37,1.95-.39,3.52-.98,4.88-1.37v-46.51h17.59v102.19h-17.59v-41.23c-3.91,.98-8.01,1.95-12.51,2.54Z"/>
        <path class="cls-8" d="M512.2,540.42v-41.23h17.59v102.19h-17.59v-45.72h-47.68v45.72h-17.59v-102.19h17.59v41.23h47.68Z"/>
        <path class="cls-8" d="M603.84,537.69c5.47,0,10.55,.78,15.05,2.15,4.3,1.56,8.01,3.71,11.14,6.45,2.93,2.74,5.47,6.06,7.03,9.97,1.56,3.91,2.34,8.4,2.34,13.29s-.78,9.38-2.34,13.29c-1.56,3.91-4.1,7.23-7.03,9.97-3.13,2.74-6.84,4.88-11.14,6.45-4.49,1.37-9.57,2.15-15.05,2.15h-48.26v-102.19h17.59v38.49h30.68Zm5.08,48.65c2.54-.59,4.88-1.56,6.84-3.13,1.76-1.37,3.32-3.13,4.3-5.47,1.17-2.15,1.76-4.88,1.76-8.21,0-3.13-.59-5.86-1.76-8.21-.98-2.15-2.54-4.1-4.49-5.47-2.15-1.37-4.49-2.54-7.42-3.13-2.74-.59-5.86-.98-9.38-.98h-25.6v35.56h27.16c3.13,0,5.86-.2,8.6-.98Zm44.35,15.05v-102.19h17.59v102.19h-17.59Z"/>
        <path class="cls-8" d="M714.63,577.55l50.22-78.36h20.13v102.19h-17.78v-78.36h-.39l-50.02,78.36h-20.13v-102.19h17.59v78.36h.39Zm14.65-108.45c2.74,2.34,6.64,3.71,11.53,3.71,5.28,0,9.18-1.17,11.72-3.52s4.3-5.67,5.08-9.77h16.22c0,3.71-.78,7.23-2.34,10.36-1.76,3.13-3.91,5.67-6.64,7.82-3.13,2.15-6.45,3.91-10.55,5.08-4.1,1.17-8.6,1.76-13.48,1.76s-9.18-.59-13.29-1.76c-3.91-1.17-7.43-2.74-10.36-4.88-2.74-2.34-4.89-4.88-6.64-8.01-1.56-2.93-2.34-6.45-2.54-10.36h16.22c.78,4.1,2.54,7.23,5.08,9.57Z"/>
        <path class="cls-8" d="M824.05,598.06c4.49-13.48,6.64-29.51,6.64-48.07s-2.54-35.17-7.82-50.41c-3.13-9.38-9.38-23.06-18.76-40.64h11.53c9.97,15.63,15.83,25.21,17.98,28.92,1.95,3.71,4.3,8.79,6.64,15.24,2.93,7.82,5.27,15.83,6.45,23.45,1.37,7.82,1.95,15.24,1.95,22.47,0,18.76-2.93,35.56-8.99,50.41-3.71,9.38-11.53,23.45-23.25,41.82h-11.92c9.96-19.74,16.61-34,19.54-43.18Z"/>
      </g>
      <g>
        <path class="cls-8" d="M119.45,809.38l19.15-90.47h-55.88l-19.15,90.47h-12.31l21.3-100.83h80.5l-21.3,100.83h-12.31Z"/>
        <path class="cls-8" d="M175.14,807.82c-5.28-2.74-9.18-6.64-11.72-11.53-2.54-4.88-4.1-10.36-4.49-16.8-.59-6.45,0-13.29,1.56-20.52,1.37-6.64,3.71-13.09,6.84-19.54,3.13-6.45,7.03-12.11,11.72-17.2,4.69-4.88,10.16-8.99,16.61-12.11,6.45-2.93,13.68-4.49,21.69-4.49s14.66,1.56,19.74,4.88,8.79,7.43,11.33,12.7c2.54,5.28,3.71,11.33,3.91,18.17,0,6.84-.78,13.87-2.54,20.91h-77.57c-.98,4.49-1.37,9.18-1.17,13.87,.2,4.69,1.37,8.99,3.32,12.7,1.95,3.71,4.69,6.84,8.4,9.38,3.71,2.54,8.4,3.71,14.26,3.71,8.99,0,16.61-2.34,22.67-7.03,6.06-4.69,10.75-10.94,14.46-18.76h12.31c-5.08,11.53-11.72,20.32-19.93,26.57-8.4,6.25-18.95,9.38-31.65,9.38-8.01,0-14.66-1.37-19.74-4.3Zm65.07-69.37c-.59-4.3-1.95-8.21-3.91-11.53-2.15-3.32-4.88-5.86-8.4-8.01-3.52-1.95-7.82-2.93-12.7-2.93s-9.77,.98-14.07,2.93c-4.3,2.15-8.21,4.69-11.53,8.01-3.52,3.32-6.64,7.23-9.18,11.53-2.54,4.49-4.69,8.99-6.06,13.48h65.26c.98-4.69,1.17-9.18,.59-13.48Z"/>
        <path class="cls-8" d="M285.34,727.71c4.49-7.03,10.36-12.51,17.59-16.41,7.23-3.71,14.85-5.67,23.06-5.67,7.62,0,14.07,1.37,19.15,4.3,5.08,2.93,8.99,6.64,11.72,11.53,2.74,4.88,4.3,10.55,4.89,17,.39,6.45-.2,13.29-1.76,20.52-1.56,7.23-3.91,14.07-7.03,20.52-3.13,6.45-7.04,11.92-11.92,16.8-4.88,4.88-10.36,8.79-16.61,11.53-6.25,2.93-13.29,4.3-20.91,4.3-3.71,0-7.42-.39-10.75-1.37-3.32-.98-6.45-2.34-9.18-4.1-2.93-1.76-5.28-4.1-7.03-6.84-1.76-2.74-2.93-5.86-3.52-9.57h-.39l-11.92,56.28h-12.31l29.31-137.95h11.33l-4.1,19.15h.39Zm36.15,70.34c4.69-2.54,8.79-5.67,12.31-9.77,3.52-4.1,6.45-8.6,8.79-13.87,2.34-5.08,4.1-10.16,5.08-15.44,1.17-5.28,1.76-10.36,1.56-15.63-.2-5.08-1.17-9.57-2.93-13.68s-4.49-7.43-8.21-9.97c-3.71-2.54-8.4-3.71-14.26-3.71-6.84,0-12.9,1.17-17.78,3.52-5.08,2.34-9.38,5.47-12.9,9.38-3.52,3.91-6.45,8.4-8.6,13.68-2.15,5.28-3.91,10.75-5.28,16.41-.98,5.28-1.56,10.36-1.37,15.44,.2,5.28,1.17,9.77,3.13,13.87,1.95,4.1,4.88,7.23,8.99,9.77,3.91,2.54,9.18,3.91,15.63,3.91,5.86,0,11.14-1.37,15.83-3.91Z"/>
        <path class="cls-8" d="M391.05,807.82c-5.28-2.74-9.57-6.45-12.51-11.33-3.13-4.88-5.08-10.55-5.67-17-.78-6.45-.39-13.29,1.17-20.52,1.56-7.23,4.1-14.07,7.62-20.52,3.32-6.45,7.62-12.11,12.7-17,5.08-4.88,10.94-8.6,17.39-11.53,6.45-2.93,13.68-4.3,21.3-4.3,10.75,0,19.34,2.93,25.79,8.6,6.25,5.67,8.79,14.46,7.82,25.99h-12.31c-.2-7.62-1.95-13.48-5.67-17.78-3.71-4.3-9.58-6.45-17.78-6.45-5.86,0-11.33,1.17-16.22,3.71-4.88,2.54-9.38,5.67-13.09,9.77-3.71,4.1-7.03,8.6-9.57,13.68-2.54,5.28-4.49,10.55-5.67,15.83-.98,5.28-1.37,10.55-.98,15.63,.39,5.28,1.56,9.77,3.71,13.87,2.15,4.1,5.08,7.23,8.99,9.77,3.91,2.54,8.79,3.71,14.66,3.71,3.71,0,7.42-.78,11.14-2.15,3.71-1.37,7.03-3.52,10.36-6.06,3.13-2.54,5.86-5.47,8.4-8.99,2.34-3.52,4.1-7.43,5.47-11.53h12.31c-4.3,12.31-10.75,21.69-19.54,28.53-8.79,6.84-18.76,10.36-30.29,10.36-7.62,0-14.26-1.37-19.54-4.3Z"/>
        <path class="cls-8" d="M492.47,807.82c-5.28-2.74-9.57-6.45-12.51-11.33-3.13-4.88-5.08-10.55-5.67-17-.78-6.45-.39-13.29,1.17-20.52,1.56-7.23,4.1-14.07,7.62-20.52,3.32-6.45,7.62-12.11,12.7-17,5.08-4.88,10.94-8.6,17.39-11.53,6.45-2.93,13.68-4.3,21.3-4.3s14.26,1.37,19.54,4.3c5.28,2.93,9.58,6.64,12.51,11.53,2.93,4.88,4.89,10.55,5.67,17,.59,6.45,.2,13.29-1.37,20.52-1.56,7.23-4.1,14.07-7.43,20.52-3.52,6.45-7.82,12.11-12.7,17-5.08,4.88-10.94,8.6-17.39,11.33-6.45,2.93-13.68,4.3-21.3,4.3s-14.26-1.37-19.54-4.3Zm37.91-9.57c4.88-2.54,9.38-5.67,13.09-9.77,3.71-4.1,7.03-8.6,9.57-13.87,2.54-5.08,4.49-10.36,5.47-15.63,1.17-5.28,1.56-10.55,1.17-15.83-.39-5.08-1.56-9.57-3.71-13.68-2.15-4.1-5.08-7.23-8.99-9.77s-8.79-3.71-14.65-3.71-11.33,1.17-16.22,3.71c-4.88,2.54-9.38,5.67-13.09,9.77-3.71,4.1-7.03,8.6-9.57,13.68-2.54,5.28-4.49,10.55-5.67,15.83-.98,5.28-1.37,10.55-.98,15.63,.39,5.28,1.56,9.77,3.71,13.87,2.15,4.1,5.08,7.23,8.99,9.77,3.91,2.54,8.79,3.71,14.66,3.71s11.33-1.17,16.22-3.71Z"/>
        <path class="cls-8" d="M660.31,751.35l8.99-42.79h12.31l-21.3,100.83h-12.31l9.96-47.68h-57.25l-9.97,47.68h-12.31l21.3-100.83h12.31l-8.99,42.79h57.25Z"/>
        <path class="cls-8" d="M698.41,810.56c-3.91-1.17-7.03-2.93-9.57-5.47-2.54-2.34-4.3-5.47-5.28-9.18-.98-3.71-.98-8.01,0-13.09,1.56-7.03,4.3-12.51,8.4-16.61,3.91-3.91,8.6-6.84,14.26-8.99,5.67-2.15,11.72-3.52,18.37-4.49l20.13-2.34c2.54-.2,4.69-.59,6.84-.98s3.91-1.17,5.47-2.15c1.56-.98,2.93-2.15,3.91-3.91,.98-1.76,1.95-3.91,2.54-6.64,.78-4.1,.78-7.62,0-10.36-.78-2.54-2.15-4.69-4.3-6.25-2.15-1.56-4.69-2.74-7.62-3.32-3.13-.59-6.45-.78-10.16-.78-7.82,0-14.66,1.76-20.32,5.47-5.67,3.71-9.57,9.77-11.53,17.98h-12.31c3.32-11.92,9.18-20.52,17.59-25.79,8.4-5.28,18.56-8.01,30.29-8.01,4.49,0,8.79,.39,13.09,1.17,4.3,.98,8.01,2.54,10.94,4.88,2.93,2.34,5.08,5.67,6.45,9.77,1.37,4.3,1.17,9.77-.2,16.61l-11.33,53.54c-.98,4.88,.78,7.43,5.67,7.43,1.56,0,2.93-.2,4.1-.78l-2.34,10.36-3.71,.59c-1.17,.2-2.54,.2-4.3,.2-3.13,0-5.47-.39-7.23-1.37-1.76-.78-3.13-1.95-3.71-3.52-.78-1.56-1.17-3.52-.98-5.67,.2-2.15,.59-4.49,1.17-7.03h-.39c-2.93,3.32-5.86,6.06-8.6,8.6-2.93,2.54-5.86,4.69-8.99,6.45-3.13,1.76-6.64,2.93-10.36,3.91-3.91,.98-8.21,1.37-13.09,1.37s-8.99-.59-12.9-1.56Zm29.9-10.75c4.49-1.37,8.79-3.52,12.51-6.25,3.71-2.74,7.03-6.06,9.77-9.97,2.74-3.91,4.69-8.4,5.67-13.29l3.32-16.02h-.39c-.98,1.37-2.74,2.54-5.08,3.13s-4.3,1.17-6.06,1.37c-5.47,.98-10.94,1.76-16.61,2.34-5.67,.78-10.94,1.95-15.83,3.32-4.88,1.37-9.18,3.52-12.7,6.25-3.52,2.74-5.86,6.45-6.84,11.33-.59,3.13-.59,5.86,.2,8.21,.59,2.54,1.95,4.49,3.71,6.25,1.76,1.76,3.71,3.13,6.25,4.1,2.54,.98,5.28,1.37,8.21,1.37,4.69,0,9.38-.78,13.87-2.15Z"/>
      </g>
      <g>
        <path class="cls-8" d="M350.04,994.75l-2.74-.39c-.98-.2-1.95-.2-2.74-.59-.78-.2-1.37-.2-1.76-.39l2.34-10.75c.98,.39,2.34,.78,4.49,.98,1.95,.2,3.71,.39,5.08,.39s2.74-.2,4.49-.59c1.76-.39,3.52-1.56,5.47-3.32,1.76-1.76,3.91-4.49,6.25-8.21,2.15-3.71,4.49-8.99,7.03-15.83,2.54-6.64,5.08-15.05,8.01-25.4,2.74-10.16,5.67-22.67,8.79-37.52h67.41l-21.3,100.83h-12.31l19.15-90.47h-43.18c-3.13,14.65-6.25,26.97-9.18,37.13-2.93,10.16-6.06,18.56-8.99,25.4-2.93,6.84-5.86,12.11-8.79,16.02-2.93,3.91-5.86,6.84-8.6,8.6-2.93,1.95-5.67,3.13-8.4,3.71-2.93,.39-5.67,.59-8.4,.59-.59,0-1.37,0-2.15-.2Z"/>
        <path class="cls-8" d="M526.09,933.59c9.77,0,17,2.54,21.69,7.82,4.49,5.28,5.86,12.51,3.91,22.08-2.15,9.57-6.45,17-13.29,22.28-6.84,5.47-15.24,8.21-25.01,8.21h-48.46l21.3-100.83h12.31l-8.6,40.45h36.15Zm4.1,44.94c4.69-3.32,7.82-8.4,9.18-15.05,1.37-6.64,.39-11.53-2.93-14.85-3.32-3.13-8.4-4.69-15.44-4.69h-33.22l-8.4,39.67h33.22c7.03,0,12.9-1.76,17.59-5.08Z"/>
        <path class="cls-8" d="M643.53,935.94l8.99-42.79h12.31l-21.3,100.83h-12.31l9.96-47.68h-57.25l-9.97,47.68h-12.31l21.3-100.83h12.31l-8.99,42.79h57.25Z"/>
        <path class="cls-8" d="M724.22,933.59c9.77,0,17,2.54,21.69,7.82,4.49,5.28,5.86,12.51,3.91,22.08-2.15,9.57-6.45,17-13.29,22.28-6.84,5.47-15.24,8.21-25.01,8.21h-44.94l21.3-100.83h12.31l-8.6,40.45h32.63Zm4.1,44.94c4.69-3.32,7.82-8.4,9.18-15.05,1.37-6.64,.39-11.53-2.93-14.85-3.32-3.13-8.4-4.69-15.44-4.69h-29.7l-8.4,39.67h29.7c7.03,0,12.9-1.76,17.59-5.08Zm34,15.44l21.3-100.83h12.31l-21.3,100.83h-12.31Z"/>
        <path class="cls-8" d="M886.99,893.15h15.24l-21.3,100.83h-12.31l18.17-86.37-73.86,86.37h-15.24l21.3-100.83h12.31l-18.37,86.37,74.06-86.37Zm-41.23-21.49c-3.71-4.3-5.08-10.55-4.49-18.76h7.62c-.39,4.88,.78,8.79,3.71,11.72,2.93,2.93,7.23,4.3,13.09,4.3s10.55-1.37,14.65-4.3c4.1-2.74,7.23-6.64,9.38-11.72h7.62c-3.13,8.21-7.42,14.46-13.09,18.76-5.67,4.49-12.7,6.64-20.91,6.64s-14.07-2.15-17.59-6.64Z"/>
      </g>
      <g>
        <path class="cls-8" d="M104.41,1151.39c-4.69,.78-8.99,1.17-12.9,1.17-13.48,0-23.84-2.74-30.29-8.01-6.64-5.28-9.97-13.48-9.97-24.82v-31.85h17.59v28.33c0,3.91,.39,7.23,1.37,9.97,.78,2.74,2.34,5.08,4.49,6.84,2.15,1.76,4.89,3.32,8.4,4.1,3.32,.78,7.62,1.37,12.51,1.37,1.37,0,3.13-.2,4.88-.39,1.95-.39,3.71-.59,5.86-.98,1.95-.39,3.91-.78,5.67-1.37,1.95-.39,3.52-.98,4.88-1.37v-46.51h17.59v102.19h-17.59v-41.23c-3.91,.98-8.01,1.95-12.51,2.54Z"/>
        <path class="cls-8" d="M163.81,1102.74c2.15-4.3,5.08-7.82,8.79-10.36,3.71-2.74,8.01-4.69,13.09-5.86,5.08-1.17,10.55-1.76,16.61-1.76,4.88,0,9.77,.39,14.46,1.56,4.69,.98,8.79,2.54,12.31,4.89,3.71,2.15,6.64,5.28,8.79,8.79,2.35,3.52,3.32,8.01,3.32,13.09v59.4c0,1.56,.39,3.13,1.37,4.3,.78,1.17,2.35,1.76,4.3,1.76,.78,0,1.76-.2,2.74-.39,.98,0,1.95-.2,2.93-.39v12.12c-1.37,.39-2.93,.78-4.3,.98-1.37,.39-3.13,.59-5.08,.59-3.13,0-5.67-.39-7.82-.78-2.34-.59-4.1-1.37-5.67-2.54-1.37-1.17-2.54-2.74-3.52-4.69-.78-1.76-1.17-4.1-1.56-6.84-2.15,2.34-4.49,4.49-6.84,6.45-2.34,2.15-5.08,3.91-8.21,5.28-2.93,1.56-6.25,2.74-9.96,3.71-3.71,.78-7.82,1.17-12.51,1.17-3.91,0-7.62-.59-11.33-1.95-3.71-1.17-7.23-3.13-10.16-5.47-2.93-2.54-5.28-5.67-7.03-9.38-1.95-3.52-2.74-7.82-2.74-12.7,0-5.28,.78-9.77,2.74-13.68,1.76-3.91,4.1-7.03,6.84-9.57,2.93-2.74,6.25-4.49,9.96-6.06,3.71-1.37,7.43-2.15,11.14-2.74l28.72-3.52c2.74-.2,4.88-1.37,6.45-3.13,1.56-1.95,2.34-4.69,2.34-8.79,0-6.25-1.95-10.55-6.06-13.29-4.1-2.74-9.77-4.1-17.39-4.1s-13.48,1.76-17.39,4.89c-3.71,3.32-6.06,8.21-6.45,14.85h-16.41c.2-6.25,1.37-11.53,3.52-15.83Zm54.71,37.91c-2.15,.59-4.49,1.17-6.84,1.56-2.54,.59-5.28,.98-8.01,1.17l-8.4,1.17c-3.13,.59-6.06,.98-8.79,1.95-2.54,.78-4.89,1.95-6.84,3.13-2.15,1.37-3.52,3.13-4.69,4.89-.98,1.95-1.56,4.1-1.56,6.64,0,2.93,.39,5.47,1.37,7.82,.98,2.15,2.15,4.1,3.91,5.47,1.56,1.56,3.52,2.74,5.67,3.52,2.34,.78,4.88,1.17,7.62,1.17,1.76,0,3.71-.2,5.86-.78,2.34-.39,4.49-.78,6.84-1.76,2.54-.78,4.69-1.95,7.03-3.13,2.15-1.37,4.3-2.93,6.06-4.69,1.76-1.95,3.13-3.91,4.3-6.45,.98-2.34,1.56-4.89,1.56-7.82v-16.41c-1.37,.98-3.13,1.76-5.08,2.54Z"/>
        <path class="cls-8" d="M287.1,1166.24l50.22-78.36h20.13v102.19h-17.78v-78.35h-.39l-50.02,78.35h-20.13v-102.19h17.59v78.36h.39Zm14.66-108.45c2.74,2.35,6.64,3.71,11.53,3.71,5.28,0,9.18-1.17,11.72-3.52,2.54-2.34,4.3-5.67,5.08-9.77h16.22c0,3.71-.78,7.23-2.34,10.36-1.76,3.13-3.91,5.67-6.64,7.82-3.13,2.15-6.45,3.91-10.55,5.08s-8.6,1.76-13.48,1.76-9.18-.59-13.29-1.76c-3.91-1.17-7.42-2.74-10.36-4.88-2.74-2.34-4.88-4.88-6.64-8.01-1.56-2.93-2.34-6.45-2.54-10.36h16.22c.78,4.1,2.54,7.23,5.08,9.57Z"/>
        <path class="cls-8" d="M448.31,1129.12v-41.23h17.59v102.19h-17.59v-45.72h-47.68v45.72h-17.59v-102.19h17.59v41.23h47.68Z"/>
        <path class="cls-8" d="M509.66,1166.24l50.22-78.36h20.13v102.19h-17.78v-78.35h-.39l-50.02,78.35h-20.13v-102.19h17.59v78.36h.39Z"/>
        <path class="cls-8" d="M674.77,1087.89h23.06l-48.07,45.14,48.85,57.06h-22.67l-39.86-46.31-12.9,10.75v35.56h-17.59v-102.19h17.59v49.44l51.59-49.44Z"/>
      </g>
      <g>
        <path class="cls-5" d="M799.6,738.68l-44.52,8.37,21.53-47.74c-122.96,67.7-41.17,209.65,2.2,278.46,43.36,68.83-10.19,77.92-10.19,77.92,0,0-135.37-278.73-137.69-283.5-2.31-4.76-118.7,60.22-121.05,58.79l8.64,18.04c-16.7,6.91-112.92,51.36-56.2,139.03,54.86,84.78,124.82,46.28,140.16,36.33l5.45,11.37c-19.32,8.19-110.77,52.62-55.15,138.58,53.77,83.1,122.07,47.74,139.19,36.95l11.07,23.12,126.63-61.5-28.04-53.74c23.18-10.08,38.26-24.12,47.46-39.76,23.26-39.49,3.16-92.35-15.63-119.78-8.68-12.67-15.93-18.01-30.06-40.46-5.28-8.39-12.9-25.19-23.4-44.61-53.96-99.72,19.58-135.86,19.58-135.86Zm-316.56,237.47c-31.84-60.12,33.82-95.07,47.69-101.63l59.6,124.46c-14.42,7.71-76.07,36.13-107.3-22.84Zm90.47,186.27c-31.11-58.75,30.87-93.46,46.66-101.13l59.62,124.5c-16.08,8.38-75.74,34.29-106.28-23.37Z"/>
        <text class="cls-2" transform="translate(528.72 843.58) rotate(64.44)"><tspan x="0" y="0"> </tspan></text>
        <text class="cls-2" transform="translate(531.87 850.15) rotate(64.44)"><tspan x="0" y="0">п</tspan></text>
        <text class="cls-2" transform="translate(537.86 862.68) rotate(64.44)"><tspan x="0" y="0">р</tspan></text>
        <text class="cls-2" transform="translate(544.34 876.23) rotate(64.44)"><tspan x="0" y="0">о</tspan></text>
        <text class="cls-2" transform="translate(550.62 889.36) rotate(64.44)"><tspan x="0" y="0">и</tspan></text>
        <text class="cls-2" transform="translate(556.77 902.23) rotate(64.44)"><tspan x="0" y="0">з</tspan></text>
        <text class="cls-2" transform="translate(562.24 913.66) rotate(64.44)"><tspan x="0" y="0">в</tspan><tspan x="13.54" y="0">о</tspan></text>
        <text class="cls-2" transform="translate(574.36 939) rotate(64.44)"><tspan x="0" y="0">д</tspan></text>
        <text class="cls-2" transform="translate(580.81 952.48) rotate(64.44)"><tspan x="0" y="0">с</tspan></text>
        <text class="cls-2" transform="translate(586.67 964.73) rotate(64.44)"><tspan x="0" y="0">т</tspan></text>
        <text class="cls-2" transform="translate(591.68 975.21) rotate(64.44)"><tspan x="0" y="0">в</tspan></text>
        <text class="cls-2" transform="translate(597.51 987.39) rotate(64.44)"><tspan x="0" y="0">о</tspan></text>
        <text class="cls-2" transform="translate(603.8 1000.54) rotate(64.44)"><tspan x="0" y="0"> </tspan></text>
        <text class="cls-2" transform="translate(606.94 1007.12) rotate(64.44)"><tspan x="0" y="0">а</tspan></text>
        <text class="cls-2" transform="translate(612.8 1019.36) rotate(64.44)"><tspan x="0" y="0">б</tspan></text>
        <text class="cls-2" transform="translate(619.09 1032.52) rotate(64.44)"><tspan x="0" y="0">с</tspan></text>
        <text class="cls-2" transform="translate(624.96 1044.78) rotate(64.44)"><tspan x="0" y="0">у</tspan><tspan x="12.11" y="0">р</tspan></text>
        <text class="cls-2" transform="translate(636.66 1069.26) rotate(64.44)"><tspan x="0" y="0">д</tspan></text>
        <text class="cls-2" transform="translate(643.11 1082.73) rotate(64.44)"><tspan x="0" y="0">н</tspan></text>
        <text class="cls-2" transform="translate(649.18 1095.42) rotate(64.44)"><tspan x="0" y="0">ы</tspan></text>
        <text class="cls-2" transform="translate(656.76 1111.27) rotate(64.44)"><tspan x="0" y="0">х</tspan></text>
        <text class="cls-2" transform="translate(662.19 1122.63) rotate(64.44)"><tspan x="0" y="0"> </tspan></text>
        <text class="cls-2" transform="translate(665.34 1129.2) rotate(64.44)"><tspan x="0" y="0">б</tspan></text>
        <text class="cls-2" transform="translate(671.62 1142.33) rotate(64.44)"><tspan x="0" y="0">ы</tspan></text>
        <text class="cls-2" transform="translate(679.2 1158.19) rotate(64.44)"><tspan x="0" y="0">т</tspan></text>
        <text class="cls-2" transform="translate(684.2 1168.64) rotate(64.44)"><tspan x="0" y="0">о</tspan></text>
        <text class="cls-2" transform="translate(690.49 1181.79) rotate(64.44)"><tspan x="0" y="0">в</tspan></text>
        <text class="cls-2" transform="translate(696.33 1193.99) rotate(64.44)"><tspan x="0" y="0">ы</tspan></text>
        <text class="cls-2" transform="translate(704.08 1210.21) rotate(64.44)"><tspan x="0" y="0">х</tspan></text>
        <text class="cls-2" transform="translate(725.88 1214.92) rotate(-26.48)"><tspan x="0" y="0"> </tspan></text>
        <text class="cls-2" transform="translate(732.39 1211.68) rotate(-26.48)"><tspan x="0" y="0">в</tspan></text>
        <text class="cls-2" transform="translate(744.5 1205.65) rotate(-26.48)"><tspan x="0" y="0">е</tspan></text>
        <text class="cls-2" transform="translate(756.66 1199.59) rotate(-26.48)"><tspan x="0" y="0">щ</tspan></text>
        <text class="cls-2" transform="translate(775.6 1190.15) rotate(-26.48)"><tspan x="0" y="0">е</tspan></text>
        <text class="cls-2" transform="translate(787.76 1184.1) rotate(-26.48)"><tspan x="0" y="0">й</tspan></text>
      </g>
      <g>
        <path class="cls-8" d="M892.57,200.3s-61.47-53.28-95.48,33.61c-27.23,69.51-69.52,90.15-85.35,95.63l49.33-184.18s.25-20.42-28.32-44.14c0,0,21.46-35.26-13.15-33.04-34.61,2.2-19.77,19.43-19.77,19.43,0,0-54.63-28.11-64.56,12.12l-19.69,34.1c-7.61-16.3-34.75-63.82-81.03-30.71-54.11,38.71-100.25,178.33-27.53,218.8l-15.74,27.25s81.29,84.08,192.94,83.13l3.84-14.37c33.73,8.24,92.61-72.09,123.67-149.18,32.9-81.65,80.83-68.43,80.83-68.43Zm-363.42,83.28c-14.61-15.36-37.58-51.85-5.12-109.72,37.64-67.09,68.91-28.75,77.49-15.67l-72.37,125.39Z"/>
        <text class="cls-1" transform="translate(560.64 387.39) rotate(23.25)"><tspan x="0" y="0">т</tspan></text>
        <text class="cls-1" transform="translate(571.59 392.11) rotate(22.01)"><tspan x="0" y="0">е</tspan></text>
        <text class="cls-1" transform="translate(584.53 397.35) rotate(20.55)"><tspan x="0" y="0">л</tspan></text>
        <text class="cls-1" transform="translate(598.82 402.7) rotate(18.88)"><tspan x="0" y="0">е</tspan></text>
        <text class="cls-1" transform="translate(612.63 407.53) rotate(16.19)"><tspan x="0" y="0">ф</tspan></text>
        <text class="cls-1" transform="translate(634.33 413.73) rotate(12.06)"><tspan x="0" y="0">о</tspan></text>
        <text class="cls-1" transform="translate(650.21 417.12) rotate(6.44)"><tspan x="0" y="0">н</tspan></text>
        <text class="cls-1" transform="translate(666.35 418.67) rotate(-1.46)"><tspan x="0" y="0">/</tspan></text>
        <text class="cls-1" transform="translate(676.3 418.28) rotate(-12.88)"><tspan x="0" y="0">/</tspan></text>
      </g>
      <g>
        <path class="cls-8" d="M143.22,743.63l20.23,13.8s-38.12,49.15-41.2,79.52c-2.24,22.11,4.59,34.5,8.47,39.6l92.66-76.12,7.71,5.26,12.32-18.06,45.7-154.43s80.6,16.87,150.99,103l-130.14,95.08-12.98,19.02,5.3,3.61-38.51,109.23,12.67,55.92c-.72-.49-98.02-35.81-98.02-35.81l-11.59,33.03-36.12-24.64,25.55-22.45-58.9-65.23,9.35-7.68c-10.67-10.7-36.46-42.51-13.73-82.11,28.09-48.94,50.23-70.54,50.23-70.54Z"/>
        <g>
          <text class="cls-6" transform="translate(292.16 659.05) rotate(24.31)"><tspan x="0" y="0">А</tspan></text>
          <text class="cls-6" transform="translate(309.14 666.72) rotate(26.57)"><tspan x="0" y="0">Б</tspan></text>
          <text class="cls-6" transform="translate(325.32 674.81) rotate(28.8)"><tspan x="0" y="0">–</tspan></text>
          <text class="cls-6" transform="translate(340.38 683.07) rotate(31.28)"><tspan x="0" y="0">З</tspan></text>
          <text class="cls-6" transform="translate(354.66 691.68) rotate(34.19)"><tspan x="0" y="0">А</tspan></text>
          <text class="cls-6" transform="translate(369.99 702.06) rotate(38.08)"><tspan x="0" y="0">В</tspan></text>
          <text class="cls-6" transform="translate(384.31 713.16) rotate(43.38)"><tspan x="0" y="0">О</tspan></text>
          <text class="cls-6" transform="translate(398.37 726.08) rotate(51.86)"><tspan x="0" y="0">Д</tspan></text>
        </g>
      </g>
      <g>
        <path class="cls-5" d="M604.66,486.37l-94.98-82.3s19.91-23.42,20.77-48.3c.54-15.5-8.32-26.89-10.87-30.3-12.93-17.27-32.16-20.99-38.35-22.19-8.09-1.57-15.02-1.37-19.78-.91l-3.71-30.54-150.04,90.1,17.08,11.89c-12.87,0-29.93,3.17-30.73,25.1-.79,21.93,30.72,14.47,30.72,14.47,0,0-3.11,24.51,21.13,29.63,24.24,5.12,30.12-33.57,30.12-33.57l11.37,7.91,56.11,220.08c30.27-12.39,64.62-28.73,100.97-50.41,37.68-22.46,69.34-45.77,95.23-67.2-6.17-6.39-12.35-12.79-18.52-19.18,5.95-5.69,6.35-13.85,3.07-17.53-3.68-4.12-13.48-4.26-19.59,3.25Zm-138.82-120.37l-4.66-39.4s27.21-3.78,37.51,15.95c10.3,19.73-6.69,46.06-6.69,46.06l-26.16-22.61Z"/>
        <text class="cls-3" transform="translate(407.49 453.01) rotate(75.33)"><tspan x="0" y="0">8</tspan></text>
        <text class="cls-3" transform="translate(411.41 468) rotate(75.41)"><tspan x="0" y="0">9</tspan></text>
        <text class="cls-3" transform="translate(415.32 483.02) rotate(75.47)"><tspan x="0" y="0">3</tspan></text>
        <text class="cls-3" transform="translate(419.2 498.02) rotate(75.52)"><tspan x="0" y="0">7</tspan></text>
        <text class="cls-3" transform="translate(423.08 513.03) rotate(75.55)"><tspan x="0" y="0">6</tspan></text>
        <text class="cls-3" transform="translate(426.95 528.07) rotate(75.58)"><tspan x="0" y="0">6</tspan></text>
        <text class="cls-3" transform="translate(430.8 543.06) rotate(75.61)"><tspan x="0" y="0">3</tspan></text>
        <text class="cls-3" transform="translate(434.67 558.11) rotate(75.63)"><tspan x="0" y="0">4</tspan></text>
        <text class="cls-3" transform="translate(438.52 573.14) rotate(75.65)"><tspan x="0" y="0">6</tspan></text>
        <text class="cls-3" transform="translate(442.35 588.14) rotate(75.67)"><tspan x="0" y="0">5</tspan></text>
        <text class="cls-3" transform="translate(446.19 603.19) rotate(75.7)"><tspan x="0" y="0">6</tspan></text>
      </g>
    </g>
  </g>
</svg>