<svg width="46" height="882" viewBox="0 0 46 882" fill="none" xmlns="http://www.w3.org/2000/svg">
<path d="M26 3C26 1.34315 24.6569 -7.24234e-08 23 0C21.3431 7.24234e-08 20 1.34315 20 3L26 3ZM20.8787 881.121C22.0503 882.293 23.9498 882.293 25.1214 881.121L44.2132 862.029C45.3848 860.858 45.3848 858.958 44.2132 857.787C43.0417 856.615 41.1422 856.615 39.9706 857.787L23 874.757L6.02948 857.787C4.8579 856.615 2.95841 856.615 1.78683 857.787C0.61526 858.958 0.61526 860.858 1.78683 862.029L20.8787 881.121ZM20 3L20 879L26 879L26 3L20 3Z" fill="#0400DB"/>
</svg>
